<svg width="133" height="133" viewBox="0 0 133 133" fill="none" xmlns="http://www.w3.org/2000/svg">
<g filter="url(#filter0_d_1_519)">
<path d="M100.405 50.1422C98.9598 49.855 97.8851 48.7524 97.8851 48.5208C97.8851 48.3725 98.4317 47.7981 99.2748 47.3349C99.6825 48.2614 100.062 49.1879 100.405 50.1422Z" fill="#00B2EB"/>
<path d="M91.7315 41.2848C92.9329 39.9566 93.3439 38.3707 92.6494 37.7426C91.955 37.1144 90.4181 37.6819 89.2167 39.0101C88.0153 40.3383 87.6044 41.9242 88.2989 42.5523C88.9933 43.1805 90.5301 42.613 91.7315 41.2848Z" fill="#00B2EB"/>
<path d="M73.414 44.1071C74.5466 42.7198 74.8767 41.1151 74.1514 40.523C73.426 39.9308 71.9199 40.5753 70.7873 41.9626C69.6547 43.3498 69.3245 44.9545 70.0499 45.5467C70.7752 46.1389 72.2814 45.4944 73.414 44.1071Z" fill="#00B2EB"/>
<path d="M57.4118 45.5519C58.1371 44.9597 57.807 43.355 56.6744 41.9678C55.5418 40.5805 54.0356 39.936 53.3103 40.5281C52.5849 41.1203 52.9151 42.725 54.0477 44.1123C55.1803 45.4995 56.6864 46.1441 57.4118 45.5519Z" fill="#00B2EB"/>
<path d="M39.0778 42.6749C38.9018 42.8231 37.1692 42.6471 36.011 41.5446C36.6503 40.5902 37.3453 39.6915 38.0679 38.7928C38.1513 38.8762 38.244 38.9688 38.3273 39.08C39.4577 40.479 39.2539 42.5266 39.0778 42.6749Z" fill="#00B2EB"/>
<path d="M77.4843 27.5356C76.3261 28.6938 74.5935 28.8976 74.3897 28.7216C74.2414 28.6382 74.1303 27.6839 74.3897 26.6369C75.4274 26.8685 76.4744 27.165 77.4843 27.5356Z" fill="#00B2EB"/>
<path d="M53.1418 27.9998C53.1141 28.4074 53.0863 28.6668 52.9936 28.7224C52.9102 28.778 52.3821 28.778 51.7243 28.5742C52.1876 28.3796 52.6786 28.2036 53.1418 27.9998Z" fill="#00B2EB"/>
<path d="M40.9581 29.5372C40.9581 29.7967 39.5127 31.2142 37.7153 31.2142C35.9178 31.2142 34.4725 29.7967 34.4725 29.5372C34.4725 29.3334 35.399 28.3513 36.7054 27.9714C37.0204 28.4347 38.3268 29.5372 39.8926 29.5372C40.2447 29.5372 40.5875 29.4816 40.9025 29.389C40.9303 29.4446 40.9581 29.5094 40.9581 29.5372Z" fill="#00B2EB"/>
<path d="M74.3873 95.3947C73.8036 96.2379 73.2014 97.0439 72.5065 97.8222C71.3206 98.0538 70.1625 98.2299 68.9209 98.2855C70.2829 97.0161 71.4966 95.6264 72.5065 94.1161C76.0922 88.9091 77.4541 82.3957 76.1199 76.6976C74.4429 69.3503 68.7449 64.1062 64.1123 60.6688C63.6768 61.2803 63.2413 61.9103 62.8151 62.5496C62.8151 62.5218 62.7874 62.5218 62.7596 62.494C62.3519 62.179 61.9442 61.8825 61.5458 61.5953L60.9992 61.2154C61.4347 60.5761 61.8701 59.9461 62.2963 59.3068C62.7318 58.6675 63.1673 58.0653 63.6027 57.4537C64.0104 56.9071 64.381 56.4438 64.7886 55.8879C64.8164 55.8601 64.8442 55.8046 64.872 55.7397C65.3909 55.0448 65.9097 54.3777 66.4379 53.7106V56.7218C66.5583 56.8052 66.6695 56.8979 66.7899 56.9534C66.7621 56.9812 66.7621 57.009 66.7621 57.009C66.3267 57.5835 65.8912 58.1672 65.4279 58.8065C70.4033 62.4848 76.5091 68.0717 78.3621 76.1695C79.7982 82.4883 78.325 89.6596 74.3873 95.3947Z" fill="#00B2EB"/>
<path d="M74.3893 95.3945C73.8056 96.2376 73.2034 97.0437 72.5085 97.8219C71.3225 98.0536 70.1644 98.2296 68.9229 98.2852C70.2849 97.0159 71.4986 95.6261 72.5085 94.1159C76.0941 88.9088 77.4561 82.3954 76.1219 76.6973C74.4449 69.35 68.7468 64.1059 64.1142 60.6686C63.6788 60.3535 63.2433 60.0293 62.8449 59.742L63.2526 59.1954L64.1791 57.889C64.5868 58.1762 65.0222 58.5005 65.4206 58.8155C70.396 62.4938 76.5018 68.0807 78.3548 76.1785C79.8002 82.4881 78.327 89.6593 74.3893 95.3945Z" fill="#00B2EB"/>
<path d="M70.9426 70.6188H58.1196V68.3488H69.1822C69.8308 69.0993 70.4238 69.8498 70.9426 70.6188Z" fill="#00B2EB"/>
<path d="M74.1475 78.4015H54.3941V76.1315H73.6286C73.7398 76.4929 73.8324 76.8542 73.9158 77.2248C74.0085 77.6047 74.0826 78.0031 74.1475 78.4015Z" fill="#00B2EB"/>
<path d="M74.1456 83.9049C74.0344 84.6647 73.8861 85.4244 73.6823 86.1749H54.1235V83.9049H74.1456Z" fill="#00B2EB"/>
<path d="M71.3773 91.6877C71.1457 92.0769 70.9048 92.4567 70.6454 92.8273C70.386 93.2072 70.108 93.5871 69.8115 93.9577H57.2202V91.6877H71.3773Z" fill="#00B2EB"/>
<path d="M102.108 57.6288C98.2258 57.0821 94.6957 55.8036 91.805 53.895C90.7024 53.1445 89.6369 52.3013 88.6178 51.4952C86.3293 49.67 84.1612 47.9652 81.5576 47.4464C78.3982 46.8349 74.7848 48.1968 71.9219 51.032C70.0966 52.8294 68.503 54.7381 66.826 56.8506C66.7982 56.9061 66.7982 56.9339 66.7704 56.971C66.7427 56.9988 66.7426 57.0266 66.7426 57.0266C66.3072 57.601 65.8717 58.1847 65.4084 58.824C64.973 59.4355 64.5375 60.0378 64.1021 60.6771C63.6666 61.2886 63.2311 61.9186 62.8049 62.5579C62.5177 62.9933 62.1934 63.4566 61.8784 63.9199C60.8963 65.3931 59.942 66.8755 59.0711 68.3486C58.7561 68.9231 58.4318 69.5068 58.1167 70.0812C57.079 72.0176 56.2359 74.0189 55.6522 76.1314C55.4484 76.8819 55.3001 77.6324 55.189 78.3921V78.4199C54.9017 80.1895 54.8369 81.9777 55.0685 83.9141C55.0963 84.3218 55.1519 84.7573 55.2446 85.1557C55.3001 85.4985 55.365 85.8505 55.4484 86.1656V86.1934C55.9672 88.3059 56.8382 90.1033 57.9037 91.6876C58.4503 92.4937 59.0896 93.2535 59.7289 93.9483L59.7567 93.9761C61.5171 95.8569 63.5184 97.219 65.3158 98.2289L65.2324 98.4049C63.787 98.4049 62.3695 98.2845 60.9797 98.0621C56.6714 94.7915 53.8918 90.4461 53.0209 85.5634C51.3995 76.4186 55.5688 69.2381 59.9976 62.6413C60.3126 62.178 60.6647 61.687 60.9797 61.2237C61.4152 60.5844 61.8506 59.9544 62.2768 59.3151C62.7123 58.6758 63.1478 58.0735 63.5832 57.462C63.9909 56.9154 64.3615 56.4521 64.7691 55.8962C64.7969 55.8684 64.8248 55.8128 64.8525 55.748C65.3714 55.0531 65.8903 54.386 66.4184 53.7189C67.0855 52.9128 67.7525 52.1253 68.4752 51.347C69.0497 50.6799 69.6612 50.0406 70.3005 49.4106C73.3117 46.455 77.0177 44.8985 80.4829 45.0374C80.835 45.0652 81.1778 45.093 81.4928 45.1208H81.5206C81.6688 45.1486 81.8078 45.1764 81.9839 45.2042C82.651 45.3524 83.318 45.5192 83.9481 45.7786C84.7912 46.1214 85.6251 46.5569 86.4127 47.048C87.682 47.8262 88.8772 48.7805 90.026 49.6792C91.0081 50.4853 92.0273 51.2729 93.0372 51.9678C95.5296 53.5892 98.4759 54.6917 101.719 55.2662C101.904 56.0352 102.024 56.8413 102.108 57.6288Z" fill="#00B2EB"/>
<path d="M97.7741 44.3252C97.0792 44.5846 96.3843 44.8718 95.6895 45.1034C92.6783 46.1133 89.5559 46.7805 86.4336 47.0677C85.2198 47.1881 84.0061 47.2159 82.7831 47.2159C81.977 47.2159 81.1617 47.2159 80.3834 47.1603L80.5039 45.0478L80.5316 44.8718C80.9393 44.8996 81.3099 44.9274 81.7176 44.9274C82.1253 44.9274 82.4959 44.9552 82.9035 44.9552C83.4502 44.9552 84.0061 44.9274 84.5528 44.8996C88.0828 44.7514 91.6128 44.0935 94.939 42.9631L96.5882 42.3517C97.0237 42.991 97.3942 43.6581 97.7741 44.3252Z" fill="#00B2EB"/>
<path d="M83.0707 46.8173L81.4586 45.2144C83.2467 43.417 84.0713 40.6559 83.5432 38.1728L85.7669 37.7003C86.4618 40.9616 85.424 44.4546 83.0707 46.8173Z" fill="#00B2EB"/>
<path d="M62.4359 56.5634L60.6106 57.6937L60.5273 57.7493C60.3234 57.4621 60.1474 57.1378 59.9435 56.8506C59.8231 56.6468 59.6841 56.4707 59.6007 56.2762C59.5729 56.2484 59.5451 56.2206 59.5451 56.1557C57.8126 53.3484 56.1263 50.6893 53.4672 49.0956C48.603 46.1771 43.4515 46.8071 38.0962 50.9764C36.9103 51.903 35.7244 52.9407 34.594 53.9599C33.1764 55.2292 31.7032 56.5356 30.1096 57.7215C30.054 57.7771 29.9614 57.8049 29.9058 57.8697C30.0262 56.7394 30.193 55.609 30.4524 54.5158C31.3512 53.7931 32.2221 53.0148 33.0838 52.255C34.2419 51.2451 35.4556 50.1704 36.6972 49.1883C37.7719 48.3451 38.8652 47.6225 39.94 47.048C40.9777 46.4736 41.9968 46.0381 43.0068 45.7138C43.8499 45.4544 44.6838 45.2506 45.5269 45.1394C45.8697 45.1116 46.2496 45.056 46.5924 45.056C49.3441 44.9077 52.0311 45.6026 54.6068 47.1406C55.941 47.9467 57.0343 48.9659 58.0256 50.0592C59.3598 51.5972 60.4253 53.302 61.4723 55.0068C61.5001 55.0624 61.5279 55.0902 61.5557 55.1551C61.6391 55.3033 61.7317 55.4701 61.8429 55.6183C62.056 55.9241 62.2598 56.2484 62.4359 56.5634Z" fill="#00B2EB"/>
<path d="M62.4359 56.5634L60.6106 57.6937L60.5273 57.7493C60.3234 57.4621 60.1474 57.1378 59.9435 56.8506C59.8231 56.6468 59.6841 56.4707 59.6007 56.2762C59.5729 56.2484 59.5451 56.2206 59.5451 56.1557C57.8126 53.3484 56.1263 50.6893 53.4672 49.0956C48.603 46.1771 43.4515 46.8071 38.0962 50.9764C36.9103 51.903 35.7244 52.9407 34.594 53.9599C33.1764 55.2292 31.7032 56.5356 30.1096 57.7215C30.054 57.7771 29.9614 57.8049 29.9058 57.8697C30.0262 56.7394 30.193 55.609 30.4524 54.5158C31.3512 53.7931 32.2221 53.0148 33.0838 52.255C34.2419 51.2451 35.4556 50.1704 36.6972 49.1883C37.7719 48.3451 38.8652 47.6225 39.94 47.048C40.9777 46.4736 41.9968 46.0381 43.0068 45.7138C43.8499 45.4544 44.6838 45.2506 45.5269 45.1394C45.8697 45.1116 46.2496 45.056 46.5924 45.056C49.3441 44.9077 52.0311 45.6026 54.6068 47.1406C55.941 47.9467 57.0343 48.9659 58.0256 50.0592C59.3598 51.5972 60.4253 53.302 61.4723 55.0068C61.5001 55.0624 61.5279 55.0902 61.5557 55.1551C61.6391 55.3033 61.7317 55.4701 61.8429 55.6183C62.056 55.9241 62.2598 56.2484 62.4359 56.5634Z" fill="#00B2EB"/>
<path d="M46.6029 44.816V47.1046H44.6386C43.0728 47.1046 41.5163 47.1046 39.9505 47.049C37.6898 46.9656 35.4384 46.7617 33.2054 46.3818C33.5575 45.6592 33.9003 44.9643 34.3079 44.2694C36.9671 44.6771 39.6632 44.7882 42.3779 44.816H46.6029Z" fill="#00B2EB"/>
<path d="M43.9992 46.8162C42.7484 45.621 41.8126 44.12 41.2938 42.4801C40.7749 40.8309 40.673 39.0705 41.0159 37.375L43.2487 37.8197C42.9893 39.1353 43.0634 40.5159 43.4618 41.7945C43.8695 43.0731 44.5922 44.2497 45.565 45.1762L43.9992 46.8162Z" fill="#00B2EB"/>
<path d="M61.5632 40.0159C60.9517 40.6274 60.3772 41.2297 59.8584 41.869C59.6824 41.4335 59.3951 40.7386 59.284 40.4514C58.7929 39.3211 58.4131 38.1629 58.098 36.977C57.2271 33.6508 57.0233 30.1485 57.4587 26.7019C58.237 26.498 59.0246 26.322 59.8306 26.2108C59.1357 30.4357 59.5712 34.8645 61.0721 38.8578C61.1555 39.0338 61.2204 39.2377 61.3038 39.4044C61.3871 39.6083 61.4798 39.8121 61.5632 40.0159Z" fill="#00B2EB"/>
<path d="M61.3057 39.4038L60.407 41.0808C60.0271 40.877 59.6565 40.6454 59.2766 40.4415C57.8312 39.5706 56.4415 38.6441 55.1351 37.6064C53.6897 36.476 52.3277 35.2623 51.0862 33.9281C51.0862 33.9281 51.0862 33.9281 51.0584 33.9281C50.0207 32.8255 49.0015 31.6396 48.1028 30.3981C48.7699 29.9904 49.437 29.6476 50.1319 29.3233C51.8922 31.6674 53.9769 33.7799 56.2654 35.6051C56.3488 35.6607 56.4136 35.7163 56.497 35.8089C57.0159 36.2166 57.5718 36.5872 58.0907 36.9671C59.0728 37.662 60.0549 38.2735 61.074 38.8479C61.1667 39.0239 61.2223 39.2278 61.3057 39.4038Z" fill="#00B2EB"/>
<path d="M56.5054 35.8197L55.6994 37.8487C55.5233 37.7654 55.3195 37.7005 55.1527 37.6171C50.9834 36.0513 46.5268 35.0692 42.0146 34.7819C42.8207 34.0593 43.6639 33.3644 44.5626 32.7251C46.7584 32.9567 48.9636 33.3644 51.076 33.9388C51.1038 33.9388 51.1038 33.9388 51.1038 33.9388C52.8642 34.4021 54.5783 34.9487 56.2831 35.6158C56.3572 35.6714 56.4128 35.727 56.5054 35.8197Z" fill="#00B2EB"/>
<path d="M56.5054 35.8197L55.6994 37.8487C55.5233 37.7654 55.3195 37.7005 55.1527 37.6171C50.9834 36.0513 46.5268 35.0692 42.0146 34.7819C42.8207 34.0593 43.6639 33.3644 44.5626 32.7251C46.7584 32.9567 48.9636 33.3644 51.076 33.9388C51.1038 33.9388 51.1038 33.9388 51.1038 33.9388C52.8642 34.4021 54.5783 34.9487 56.2831 35.6158C56.3572 35.6714 56.4128 35.727 56.5054 35.8197Z" fill="#00B2EB"/>
<path d="M90.1838 34.8929C88.5902 35.0411 87.0336 35.1245 85.4678 35.1801C81.3541 35.3561 77.4534 35.5229 73.7751 36.8571C70.5879 38.043 67.7527 39.6366 65.5291 41.4897C65.3808 41.6379 65.2141 41.7769 65.0658 41.8973C63.0367 43.6577 61.5636 45.6312 60.8409 47.6602C59.9144 50.1155 60.146 52.6078 61.4802 55.0075C61.508 55.0631 61.5358 55.0909 61.5636 55.1558C61.647 55.304 61.7396 55.4708 61.8508 55.6191C62.3975 56.3695 63.0924 57.0366 63.5834 57.4721C63.8984 57.7315 64.1301 57.8797 64.1579 57.9075L63.2313 59.214L62.8237 59.7606C62.7959 59.7328 62.592 59.5846 62.277 59.3251C61.8415 58.9731 61.2115 58.3986 60.6 57.7037C60.3684 57.4443 60.1368 57.157 59.9329 56.8606C59.8125 56.6567 59.6735 56.4807 59.5901 56.2861C59.5623 56.2583 59.5345 56.2305 59.5345 56.1657C58.4042 54.2015 57.9131 52.1446 58.0336 50.0599C58.0892 48.9852 58.293 47.9197 58.7006 46.8727C59.5716 44.5008 61.2764 42.2123 63.5927 40.1555C65.4735 38.5341 67.7064 37.0609 70.2451 35.9028L70.2729 35.875C71.1438 35.4673 72.0703 35.0689 72.9968 34.7446C73.0246 34.7168 73.0524 34.7168 73.0802 34.7168C74.4978 34.198 75.9432 33.8459 77.4256 33.5865C80.0569 33.151 82.7531 33.0398 85.3844 32.9194C86.1349 32.8916 86.8854 32.8638 87.6451 32.7989C88.5346 33.4753 89.3777 34.1702 90.1838 34.8929Z" fill="#00B2EB"/>
<path d="M90.1838 34.8929C88.5902 35.0411 87.0336 35.1245 85.4678 35.1801C81.3541 35.3561 77.4534 35.5229 73.7751 36.8571C70.5879 38.043 67.7527 39.6366 65.5291 41.4897C65.3808 41.6379 65.2141 41.7769 65.0658 41.8973C63.0367 43.6577 61.5636 45.6312 60.8409 47.6602C59.9144 50.1155 60.146 52.6078 61.4802 55.0075C61.508 55.0631 61.5358 55.0909 61.5636 55.1558C61.647 55.304 61.7396 55.4708 61.8508 55.6191C62.3975 56.3695 63.0924 57.0366 63.5834 57.4721C63.8984 57.7315 64.1301 57.8797 64.1579 57.9075L63.2313 59.214L62.8237 59.7606C62.7959 59.7328 62.592 59.5846 62.277 59.3251C61.8415 58.9731 61.2115 58.3986 60.6 57.7037C60.3684 57.4443 60.1368 57.157 59.9329 56.8606C59.8125 56.6567 59.6735 56.4807 59.5901 56.2861C59.5623 56.2583 59.5345 56.2305 59.5345 56.1657C58.4042 54.2015 57.9131 52.1446 58.0336 50.0599C58.0892 48.9852 58.293 47.9197 58.7006 46.8727C59.5716 44.5008 61.2764 42.2123 63.5927 40.1555C65.4735 38.5341 67.7064 37.0609 70.2451 35.9028L70.2729 35.875C71.1438 35.4673 72.0703 35.0689 72.9968 34.7446C73.0246 34.7168 73.0524 34.7168 73.0802 34.7168C74.4978 34.198 75.9432 33.8459 77.4256 33.5865C80.0569 33.151 82.7531 33.0398 85.3844 32.9194C86.1349 32.8916 86.8854 32.8638 87.6451 32.7989C88.5346 33.4753 89.3777 34.1702 90.1838 34.8929Z" fill="#00B2EB"/>
<path d="M71.7849 30.4358C71.7293 32.4927 71.1178 34.2809 70.284 35.8745L70.2562 35.9023C69.0425 38.163 67.245 39.9789 65.5402 41.4892C65.392 41.6374 65.2252 41.7764 65.077 41.8968L63.6038 40.1642C67.6249 36.7176 69.4223 33.799 69.5335 30.3524C69.5613 28.9626 69.2741 27.3968 68.7553 25.7754C69.5984 25.831 70.3767 25.9237 71.1827 26.0349C71.6089 27.5358 71.8405 29.046 71.7849 30.4358Z" fill="#00B2EB"/>
<path d="M78.7311 27.9432C79.4538 28.2026 80.1765 28.5176 80.8714 28.8419C79.8893 30.5745 78.7311 32.1681 77.4248 33.5857C76.4982 34.6234 75.4605 35.5499 74.3857 36.393L73.0794 34.716L72.996 34.5956C75.2567 32.863 77.1931 30.5745 78.7311 27.9432Z" fill="#00B2EB"/>
<path d="M78.7311 27.9432C79.4538 28.2026 80.1765 28.5176 80.8714 28.8419C79.8893 30.5745 78.7311 32.1681 77.4248 33.5857C76.4982 34.6234 75.4605 35.5499 74.3857 36.393L73.0794 34.716L72.996 34.5956C75.2567 32.863 77.1931 30.5745 78.7311 27.9432Z" fill="#00B2EB"/>
<path d="M66.7447 57.0183L64.7712 55.888C65.1696 55.2023 66.1888 53.0806 66.1981 51.5055C66.2166 48.3646 63.6316 46.1132 63.6038 46.0854L65.077 44.3528C65.2159 44.4732 68.4958 47.2899 68.4773 51.5148C68.4587 54.0071 66.8188 56.8886 66.7447 57.0183Z" fill="#00B2EB"/>
<path d="M125.727 45.131C125.755 45.2504 125.782 45.3882 125.81 45.5076C125.782 45.3882 125.727 45.2504 125.691 45.131H125.727Z" fill="#00B2EB"/>
<path d="M126.505 48.2036C126.505 48.2036 126.477 48.2035 126.477 48.2311C126.45 48.0841 126.422 47.9188 126.395 47.7718C126.45 47.9096 126.477 48.0566 126.505 48.2036Z" fill="#00B2EB"/>
<path d="M78.6318 41.851C79.5631 41.851 80.318 41.096 80.318 40.1647C80.318 39.2334 79.5631 38.4784 78.6318 38.4784C77.7005 38.4784 76.9455 39.2334 76.9455 40.1647C76.9455 41.096 77.7005 41.851 78.6318 41.851Z" fill="#00B2EB"/>
<path d="M64.3344 33.8556C66.1253 33.8556 67.5772 33.0965 67.5772 32.16C67.5772 31.2236 66.1253 30.4645 64.3344 30.4645C62.5434 30.4645 61.0916 31.2236 61.0916 32.16C61.0916 33.0965 62.5434 33.8556 64.3344 33.8556Z" fill="#00B2EB"/>
<path d="M64.3359 29.3885C65.2672 29.3885 66.0221 28.6336 66.0221 27.7023C66.0221 26.771 65.2672 26.016 64.3359 26.016C63.4046 26.016 62.6496 26.771 62.6496 27.7023C62.6496 28.6336 63.4046 29.3885 64.3359 29.3885Z" fill="#00B2EB"/>
<path d="M48.7424 41.851C49.6737 41.851 50.4287 41.096 50.4287 40.1647C50.4287 39.2334 49.6737 38.4784 48.7424 38.4784C47.8111 38.4784 47.0562 39.2334 47.0562 40.1647C47.0562 41.096 47.8111 41.851 48.7424 41.851Z" fill="#00B2EB"/>
<path d="M30.7479 31.3261L30.7201 31.3539C30.5997 31.1778 30.4885 30.974 30.368 30.8072C30.4885 30.9833 30.5997 31.1593 30.7479 31.3261Z" fill="#00B2EB"/>
<path d="M103.386 57.8143C103.304 57.8419 103.184 57.8419 103.101 57.8694V57.7867C103.184 57.8143 103.267 57.8143 103.386 57.8143Z" fill="#00B2EB"/>
<path d="M97.9116 18.9648C97.9116 18.971 97.8992 18.9772 97.8931 18.9772V18.9648C97.8972 18.9648 97.9054 18.9586 97.9116 18.9648Z" fill="#00B2EB"/>
<path d="M100.405 50.1422C98.9598 49.855 97.8851 48.7524 97.8851 48.5208C97.8851 48.3725 98.4317 47.7981 99.2748 47.3349C99.6825 48.2614 100.062 49.1879 100.405 50.1422Z" fill="#00B2EB"/>
<path d="M91.7315 41.2848C92.9329 39.9566 93.3439 38.3707 92.6494 37.7426C91.955 37.1144 90.4181 37.6819 89.2167 39.0101C88.0153 40.3383 87.6044 41.9242 88.2989 42.5523C88.9933 43.1805 90.5301 42.613 91.7315 41.2848Z" fill="#00B2EB"/>
<path d="M73.414 44.1071C74.5466 42.7198 74.8767 41.1151 74.1514 40.523C73.426 39.9308 71.9199 40.5753 70.7873 41.9626C69.6547 43.3498 69.3245 44.9545 70.0499 45.5467C70.7752 46.1389 72.2814 45.4944 73.414 44.1071Z" fill="#00B2EB"/>
<path d="M57.4118 45.5519C58.1371 44.9597 57.807 43.355 56.6744 41.9678C55.5418 40.5805 54.0356 39.936 53.3103 40.5281C52.5849 41.1203 52.9151 42.725 54.0477 44.1123C55.1803 45.4995 56.6864 46.1441 57.4118 45.5519Z" fill="#00B2EB"/>
<path d="M39.0778 42.6749C38.9018 42.8231 37.1692 42.6471 36.011 41.5446C36.6503 40.5902 37.3453 39.6915 38.0679 38.7928C38.1513 38.8762 38.244 38.9688 38.3273 39.08C39.4577 40.479 39.2539 42.5266 39.0778 42.6749Z" fill="#00B2EB"/>
<path d="M77.4843 27.5356C76.3261 28.6938 74.5935 28.8976 74.3897 28.7216C74.2414 28.6382 74.1303 27.6839 74.3897 26.6369C75.4274 26.8685 76.4744 27.165 77.4843 27.5356Z" fill="#00B2EB"/>
<path d="M53.1418 27.9998C53.1141 28.4074 53.0863 28.6668 52.9936 28.7224C52.9102 28.778 52.3821 28.778 51.7243 28.5742C52.1876 28.3796 52.6786 28.2036 53.1418 27.9998Z" fill="#00B2EB"/>
<path d="M74.3873 95.3947C73.8036 96.2379 73.2014 97.0439 72.5065 97.8222C71.3206 98.0538 70.1625 98.2299 68.9209 98.2855C70.2829 97.0161 71.4966 95.6264 72.5065 94.1161C76.0922 88.9091 77.4541 82.3957 76.1199 76.6976C74.4429 69.3503 68.7449 64.1062 64.1123 60.6688C63.6768 61.2803 63.2413 61.9103 62.8151 62.5496C62.8151 62.5218 62.7874 62.5218 62.7596 62.494C62.3519 62.179 61.9442 61.8825 61.5458 61.5953L60.9992 61.2154C61.4347 60.5761 61.8701 59.9461 62.2963 59.3068C62.7318 58.6675 63.1673 58.0653 63.6027 57.4537C64.0104 56.9071 64.381 56.4438 64.7886 55.8879C64.8164 55.8601 64.8442 55.8046 64.872 55.7397C65.3909 55.0448 65.9097 54.3777 66.4379 53.7106V56.7218C66.5583 56.8052 66.6695 56.8979 66.7899 56.9534C66.7621 56.9812 66.7621 57.009 66.7621 57.009C66.3267 57.5835 65.8912 58.1672 65.4279 58.8065C70.4033 62.4848 76.5091 68.0717 78.3621 76.1695C79.7982 82.4883 78.325 89.6596 74.3873 95.3947Z" fill="#00B2EB"/>
<path d="M74.3893 95.3945C73.8056 96.2376 73.2034 97.0437 72.5085 97.8219C71.3225 98.0536 70.1644 98.2296 68.9229 98.2852C70.2849 97.0159 71.4986 95.6261 72.5085 94.1159C76.0941 88.9088 77.4561 82.3954 76.1219 76.6973C74.4449 69.35 68.7468 64.1059 64.1142 60.6686C63.6788 60.3535 63.2433 60.0293 62.8449 59.742L63.2526 59.1954L64.1791 57.889C64.5868 58.1762 65.0222 58.5005 65.4206 58.8155C70.396 62.4938 76.5018 68.0807 78.3548 76.1785C79.8002 82.4881 78.327 89.6593 74.3893 95.3945Z" fill="#00B2EB"/>
<path d="M70.9426 70.6188H58.1196V68.3488H69.1822C69.8308 69.0993 70.4238 69.8498 70.9426 70.6188Z" fill="#00B2EB"/>
<path d="M74.1475 78.4015H54.3941V76.1315H73.6286C73.7398 76.4929 73.8324 76.8542 73.9158 77.2248C74.0085 77.6047 74.0826 78.0031 74.1475 78.4015Z" fill="#00B2EB"/>
<path d="M74.1456 83.9049C74.0344 84.6647 73.8861 85.4244 73.6823 86.1749H54.1235V83.9049H74.1456Z" fill="#00B2EB"/>
<path d="M71.3773 91.6877C71.1457 92.0769 70.9048 92.4567 70.6454 92.8273C70.386 93.2072 70.108 93.5871 69.8115 93.9577H57.2202V91.6877H71.3773Z" fill="#00B2EB"/>
<path d="M102.108 57.6288C98.2258 57.0821 94.6957 55.8036 91.805 53.895C90.7024 53.1445 89.6369 52.3013 88.6178 51.4952C86.3293 49.67 84.1612 47.9652 81.5576 47.4464C78.3982 46.8349 74.7848 48.1968 71.9219 51.032C70.0966 52.8294 68.503 54.7381 66.826 56.8506C66.7982 56.9061 66.7982 56.9339 66.7704 56.971C66.7427 56.9988 66.7426 57.0266 66.7426 57.0266C66.3072 57.601 65.8717 58.1847 65.4084 58.824C64.973 59.4355 64.5375 60.0378 64.1021 60.6771C63.6666 61.2886 63.2311 61.9186 62.8049 62.5579C62.5177 62.9933 62.1934 63.4566 61.8784 63.9199C60.8963 65.3931 59.942 66.8755 59.0711 68.3486C58.7561 68.9231 58.4318 69.5068 58.1167 70.0812C57.079 72.0176 56.2359 74.0189 55.6522 76.1314C55.4484 76.8819 55.3001 77.6324 55.189 78.3921V78.4199C54.9017 80.1895 54.8369 81.9777 55.0685 83.9141C55.0963 84.3218 55.1519 84.7573 55.2446 85.1557C55.3001 85.4985 55.365 85.8505 55.4484 86.1656V86.1934C55.9672 88.3059 56.8382 90.1033 57.9037 91.6876C58.4503 92.4937 59.0896 93.2535 59.7289 93.9483L59.7567 93.9761C61.5171 95.8569 63.5184 97.219 65.3158 98.2289L65.2324 98.4049C63.787 98.4049 62.3695 98.2845 60.9797 98.0621C56.6714 94.7915 53.8918 90.4461 53.0209 85.5634C51.3995 76.4186 55.5688 69.2381 59.9976 62.6413C60.3126 62.178 60.6647 61.687 60.9797 61.2237C61.4152 60.5844 61.8506 59.9544 62.2768 59.3151C62.7123 58.6758 63.1478 58.0735 63.5832 57.462C63.9909 56.9154 64.3615 56.4521 64.7691 55.8962C64.7969 55.8684 64.8248 55.8128 64.8525 55.748C65.3714 55.0531 65.8903 54.386 66.4184 53.7189C67.0855 52.9128 67.7525 52.1253 68.4752 51.347C69.0497 50.6799 69.6612 50.0406 70.3005 49.4106C73.3117 46.455 77.0177 44.8985 80.4829 45.0374C80.835 45.0652 81.1778 45.093 81.4928 45.1208H81.5206C81.6688 45.1486 81.8078 45.1764 81.9839 45.2042C82.651 45.3524 83.318 45.5192 83.9481 45.7786C84.7912 46.1214 85.6251 46.5569 86.4127 47.048C87.682 47.8262 88.8772 48.7805 90.026 49.6792C91.0081 50.4853 92.0273 51.2729 93.0372 51.9678C95.5296 53.5892 98.4759 54.6917 101.719 55.2662C101.904 56.0352 102.024 56.8413 102.108 57.6288Z" fill="#00B2EB"/>
<path d="M97.7741 44.3252C97.0792 44.5846 96.3843 44.8718 95.6895 45.1034C92.6783 46.1133 89.5559 46.7805 86.4336 47.0677C85.2198 47.1881 84.0061 47.2159 82.7831 47.2159C81.977 47.2159 81.1617 47.2159 80.3834 47.1603L80.5039 45.0478L80.5316 44.8718C80.9393 44.8996 81.3099 44.9274 81.7176 44.9274C82.1253 44.9274 82.4959 44.9552 82.9035 44.9552C83.4502 44.9552 84.0061 44.9274 84.5528 44.8996C88.0828 44.7514 91.6128 44.0935 94.939 42.9631L96.5882 42.3517C97.0237 42.991 97.3942 43.6581 97.7741 44.3252Z" fill="#00B2EB"/>
<path d="M83.0707 46.8173L81.4586 45.2144C83.2467 43.417 84.0713 40.6559 83.5432 38.1728L85.7669 37.7003C86.4618 40.9616 85.424 44.4546 83.0707 46.8173Z" fill="#00B2EB"/>
<path d="M62.4359 56.5634L60.6106 57.6937L60.5273 57.7493C60.3234 57.4621 60.1474 57.1378 59.9435 56.8506C59.8231 56.6468 59.6841 56.4707 59.6007 56.2762C59.5729 56.2484 59.5451 56.2206 59.5451 56.1557C57.8126 53.3484 56.1263 50.6893 53.4672 49.0956C48.603 46.1771 43.4515 46.8071 38.0962 50.9764C36.9103 51.903 35.7244 52.9407 34.594 53.9599C33.1764 55.2292 31.7032 56.5356 30.1096 57.7215C30.054 57.7771 29.9614 57.8049 29.9058 57.8697C30.0262 56.7394 30.193 55.609 30.4524 54.5158C31.3512 53.7931 32.2221 53.0148 33.0838 52.255C34.2419 51.2451 35.4556 50.1704 36.6972 49.1883C37.7719 48.3451 38.8652 47.6225 39.94 47.048C40.9777 46.4736 41.9968 46.0381 43.0068 45.7138C43.8499 45.4544 44.6838 45.2506 45.5269 45.1394C45.8697 45.1116 46.2496 45.056 46.5924 45.056C49.3441 44.9077 52.0311 45.6026 54.6068 47.1406C55.941 47.9467 57.0343 48.9659 58.0256 50.0592C59.3598 51.5972 60.4253 53.302 61.4723 55.0068C61.5001 55.0624 61.5279 55.0902 61.5557 55.1551C61.6391 55.3033 61.7317 55.4701 61.8429 55.6183C62.056 55.9241 62.2598 56.2484 62.4359 56.5634Z" fill="#00B2EB"/>
<path d="M62.4359 56.5634L60.6106 57.6937L60.5273 57.7493C60.3234 57.4621 60.1474 57.1378 59.9435 56.8506C59.8231 56.6468 59.6841 56.4707 59.6007 56.2762C59.5729 56.2484 59.5451 56.2206 59.5451 56.1557C57.8126 53.3484 56.1263 50.6893 53.4672 49.0956C48.603 46.1771 43.4515 46.8071 38.0962 50.9764C36.9103 51.903 35.7244 52.9407 34.594 53.9599C33.1764 55.2292 31.7032 56.5356 30.1096 57.7215C30.054 57.7771 29.9614 57.8049 29.9058 57.8697C30.0262 56.7394 30.193 55.609 30.4524 54.5158C31.3512 53.7931 32.2221 53.0148 33.0838 52.255C34.2419 51.2451 35.4556 50.1704 36.6972 49.1883C37.7719 48.3451 38.8652 47.6225 39.94 47.048C40.9777 46.4736 41.9968 46.0381 43.0068 45.7138C43.8499 45.4544 44.6838 45.2506 45.5269 45.1394C45.8697 45.1116 46.2496 45.056 46.5924 45.056C49.3441 44.9077 52.0311 45.6026 54.6068 47.1406C55.941 47.9467 57.0343 48.9659 58.0256 50.0592C59.3598 51.5972 60.4253 53.302 61.4723 55.0068C61.5001 55.0624 61.5279 55.0902 61.5557 55.1551C61.6391 55.3033 61.7317 55.4701 61.8429 55.6183C62.056 55.9241 62.2598 56.2484 62.4359 56.5634Z" fill="#00B2EB"/>
<path d="M46.6029 44.816V47.1046H44.6386C43.0728 47.1046 41.5163 47.1046 39.9505 47.049C37.6898 46.9656 35.4384 46.7617 33.2054 46.3818C33.5575 45.6592 33.9003 44.9643 34.3079 44.2694C36.9671 44.6771 39.6632 44.7882 42.3779 44.816H46.6029Z" fill="#00B2EB"/>
<path d="M43.9992 46.8162C42.7484 45.621 41.8126 44.12 41.2938 42.4801C40.7749 40.8309 40.673 39.0705 41.0159 37.375L43.2487 37.8197C42.9893 39.1353 43.0634 40.5159 43.4618 41.7945C43.8695 43.0731 44.5922 44.2497 45.565 45.1762L43.9992 46.8162Z" fill="#00B2EB"/>
<path d="M61.5632 40.0159C60.9517 40.6274 60.3772 41.2297 59.8584 41.869C59.6824 41.4335 59.3951 40.7386 59.284 40.4514C58.7929 39.3211 58.4131 38.1629 58.098 36.977C57.2271 33.6508 57.0233 30.1485 57.4587 26.7019C58.237 26.498 59.0246 26.322 59.8306 26.2108C59.1357 30.4357 59.5712 34.8645 61.0721 38.8578C61.1555 39.0338 61.2204 39.2377 61.3038 39.4044C61.3871 39.6083 61.4798 39.8121 61.5632 40.0159Z" fill="#00B2EB"/>
<path d="M61.3057 39.4038L60.407 41.0808C60.0271 40.877 59.6565 40.6454 59.2766 40.4415C57.8312 39.5706 56.4415 38.6441 55.1351 37.6064C53.6897 36.476 52.3277 35.2623 51.0862 33.9281C51.0862 33.9281 51.0862 33.9281 51.0584 33.9281C50.0207 32.8255 49.0015 31.6396 48.1028 30.3981C48.7699 29.9904 49.437 29.6476 50.1319 29.3233C51.8922 31.6674 53.9769 33.7799 56.2654 35.6051C56.3488 35.6607 56.4136 35.7163 56.497 35.8089C57.0159 36.2166 57.5718 36.5872 58.0907 36.9671C59.0728 37.662 60.0549 38.2735 61.074 38.8479C61.1667 39.0239 61.2223 39.2278 61.3057 39.4038Z" fill="#00B2EB"/>
<path d="M56.5054 35.8197L55.6994 37.8487C55.5233 37.7654 55.3195 37.7005 55.1527 37.6171C50.9834 36.0513 46.5268 35.0692 42.0146 34.7819C42.8207 34.0593 43.6639 33.3644 44.5626 32.7251C46.7584 32.9567 48.9636 33.3644 51.076 33.9388C51.1038 33.9388 51.1038 33.9388 51.1038 33.9388C52.8642 34.4021 54.5783 34.9487 56.2831 35.6158C56.3572 35.6714 56.4128 35.727 56.5054 35.8197Z" fill="#00B2EB"/>
<path d="M56.5054 35.8197L55.6994 37.8487C55.5233 37.7654 55.3195 37.7005 55.1527 37.6171C50.9834 36.0513 46.5268 35.0692 42.0146 34.7819C42.8207 34.0593 43.6639 33.3644 44.5626 32.7251C46.7584 32.9567 48.9636 33.3644 51.076 33.9388C51.1038 33.9388 51.1038 33.9388 51.1038 33.9388C52.8642 34.4021 54.5783 34.9487 56.2831 35.6158C56.3572 35.6714 56.4128 35.727 56.5054 35.8197Z" fill="#00B2EB"/>
<path d="M90.1838 34.8929C88.5902 35.0411 87.0336 35.1245 85.4678 35.1801C81.3541 35.3561 77.4534 35.5229 73.7751 36.8571C70.5879 38.043 67.7527 39.6366 65.5291 41.4897C65.3808 41.6379 65.2141 41.7769 65.0658 41.8973C63.0367 43.6577 61.5636 45.6312 60.8409 47.6602C59.9144 50.1155 60.146 52.6078 61.4802 55.0075C61.508 55.0631 61.5358 55.0909 61.5636 55.1558C61.647 55.304 61.7396 55.4708 61.8508 55.6191C62.3975 56.3695 63.0924 57.0366 63.5834 57.4721C63.8984 57.7315 64.1301 57.8797 64.1579 57.9075L63.2313 59.214L62.8237 59.7606C62.7959 59.7328 62.592 59.5846 62.277 59.3251C61.8415 58.9731 61.2115 58.3986 60.6 57.7037C60.3684 57.4443 60.1368 57.157 59.9329 56.8606C59.8125 56.6567 59.6735 56.4807 59.5901 56.2861C59.5623 56.2583 59.5345 56.2305 59.5345 56.1657C58.4042 54.2015 57.9131 52.1446 58.0336 50.0599C58.0892 48.9852 58.293 47.9197 58.7006 46.8727C59.5716 44.5008 61.2764 42.2123 63.5927 40.1555C65.4735 38.5341 67.7064 37.0609 70.2451 35.9028L70.2729 35.875C71.1438 35.4673 72.0703 35.0689 72.9968 34.7446C73.0246 34.7168 73.0524 34.7168 73.0802 34.7168C74.4978 34.198 75.9432 33.8459 77.4256 33.5865C80.0569 33.151 82.7531 33.0398 85.3844 32.9194C86.1349 32.8916 86.8854 32.8638 87.6451 32.7989C88.5346 33.4753 89.3777 34.1702 90.1838 34.8929Z" fill="#00B2EB"/>
<path d="M90.1838 34.8929C88.5902 35.0411 87.0336 35.1245 85.4678 35.1801C81.3541 35.3561 77.4534 35.5229 73.7751 36.8571C70.5879 38.043 67.7527 39.6366 65.5291 41.4897C65.3808 41.6379 65.2141 41.7769 65.0658 41.8973C63.0367 43.6577 61.5636 45.6312 60.8409 47.6602C59.9144 50.1155 60.146 52.6078 61.4802 55.0075C61.508 55.0631 61.5358 55.0909 61.5636 55.1558C61.647 55.304 61.7396 55.4708 61.8508 55.6191C62.3975 56.3695 63.0924 57.0366 63.5834 57.4721C63.8984 57.7315 64.1301 57.8797 64.1579 57.9075L63.2313 59.214L62.8237 59.7606C62.7959 59.7328 62.592 59.5846 62.277 59.3251C61.8415 58.9731 61.2115 58.3986 60.6 57.7037C60.3684 57.4443 60.1368 57.157 59.9329 56.8606C59.8125 56.6567 59.6735 56.4807 59.5901 56.2861C59.5623 56.2583 59.5345 56.2305 59.5345 56.1657C58.4042 54.2015 57.9131 52.1446 58.0336 50.0599C58.0892 48.9852 58.293 47.9197 58.7006 46.8727C59.5716 44.5008 61.2764 42.2123 63.5927 40.1555C65.4735 38.5341 67.7064 37.0609 70.2451 35.9028L70.2729 35.875C71.1438 35.4673 72.0703 35.0689 72.9968 34.7446C73.0246 34.7168 73.0524 34.7168 73.0802 34.7168C74.4978 34.198 75.9432 33.8459 77.4256 33.5865C80.0569 33.151 82.7531 33.0398 85.3844 32.9194C86.1349 32.8916 86.8854 32.8638 87.6451 32.7989C88.5346 33.4753 89.3777 34.1702 90.1838 34.8929Z" fill="#00B2EB"/>
<path d="M71.7849 30.4358C71.7293 32.4927 71.1178 34.2809 70.284 35.8745L70.2562 35.9023C69.0425 38.163 67.245 39.9789 65.5402 41.4892C65.392 41.6374 65.2252 41.7764 65.077 41.8968L63.6038 40.1642C67.6249 36.7176 69.4223 33.799 69.5335 30.3524C69.5613 28.9626 69.2741 27.3968 68.7553 25.7754C69.5984 25.831 70.3767 25.9237 71.1827 26.0349C71.6089 27.5358 71.8405 29.046 71.7849 30.4358Z" fill="#00B2EB"/>
<path d="M78.7311 27.9432C79.4538 28.2026 80.1765 28.5176 80.8714 28.8419C79.8893 30.5745 78.7311 32.1681 77.4248 33.5857C76.4982 34.6234 75.4605 35.5499 74.3857 36.393L73.0794 34.716L72.996 34.5956C75.2567 32.863 77.1931 30.5745 78.7311 27.9432Z" fill="#00B2EB"/>
<path d="M78.7311 27.9432C79.4538 28.2026 80.1765 28.5176 80.8714 28.8419C79.8893 30.5745 78.7311 32.1681 77.4248 33.5857C76.4982 34.6234 75.4605 35.5499 74.3857 36.393L73.0794 34.716L72.996 34.5956C75.2567 32.863 77.1931 30.5745 78.7311 27.9432Z" fill="#00B2EB"/>
<path d="M66.7447 57.0183L64.7712 55.888C65.1696 55.2023 66.1888 53.0806 66.1981 51.5055C66.2166 48.3646 63.6316 46.1132 63.6038 46.0854L65.077 44.3528C65.2159 44.4732 68.4958 47.2899 68.4773 51.5148C68.4587 54.0071 66.8188 56.8886 66.7447 57.0183Z" fill="#00B2EB"/>
<path d="M125.727 45.131C125.755 45.2504 125.782 45.3882 125.81 45.5076C125.782 45.3882 125.727 45.2504 125.691 45.131H125.727Z" fill="#00B2EB"/>
<path d="M126.505 48.2036C126.505 48.2036 126.477 48.2035 126.477 48.2311C126.45 48.0841 126.422 47.9188 126.395 47.7718C126.45 47.9096 126.477 48.0566 126.505 48.2036Z" fill="#00B2EB"/>
<path d="M78.6318 41.851C79.5631 41.851 80.318 41.096 80.318 40.1647C80.318 39.2334 79.5631 38.4784 78.6318 38.4784C77.7005 38.4784 76.9455 39.2334 76.9455 40.1647C76.9455 41.096 77.7005 41.851 78.6318 41.851Z" fill="#00B2EB"/>
<path d="M64.3344 33.8556C66.1253 33.8556 67.5772 33.0965 67.5772 32.16C67.5772 31.2236 66.1253 30.4645 64.3344 30.4645C62.5434 30.4645 61.0916 31.2236 61.0916 32.16C61.0916 33.0965 62.5434 33.8556 64.3344 33.8556Z" fill="#00B2EB"/>
<path d="M64.3359 29.3885C65.2672 29.3885 66.0221 28.6336 66.0221 27.7023C66.0221 26.771 65.2672 26.016 64.3359 26.016C63.4046 26.016 62.6496 26.771 62.6496 27.7023C62.6496 28.6336 63.4046 29.3885 64.3359 29.3885Z" fill="#00B2EB"/>
<path d="M48.7424 41.851C49.6737 41.851 50.4287 41.096 50.4287 40.1647C50.4287 39.2334 49.6737 38.4784 48.7424 38.4784C47.8111 38.4784 47.0562 39.2334 47.0562 40.1647C47.0562 41.096 47.8111 41.851 48.7424 41.851Z" fill="#00B2EB"/>
<path d="M30.7479 31.3261L30.7201 31.3539C30.5997 31.1778 30.4885 30.974 30.368 30.8072C30.4885 30.9833 30.5997 31.1593 30.7479 31.3261Z" fill="#00B2EB"/>
<path d="M103.386 57.8143C103.304 57.8419 103.184 57.8419 103.101 57.8694V57.7867C103.184 57.8143 103.267 57.8143 103.386 57.8143Z" fill="#00B2EB"/>
<path d="M97.9116 18.9648C97.9116 18.971 97.8992 18.9772 97.8931 18.9772V18.9648C97.8972 18.9648 97.9054 18.9586 97.9116 18.9648Z" fill="#00B2EB"/>
<path d="M126.476 48.2253C126.328 48.3087 126.189 48.4291 125.985 48.5403C124.447 49.439 122.455 48.9202 122.335 48.6885C122.214 48.4847 122.743 46.4927 124.299 45.5939C124.735 45.3345 125.198 45.1863 125.689 45.1307C125.485 44.3802 125.226 43.6853 124.994 42.9626C120.649 44.9639 115.877 45.9738 111.078 45.9738C107.001 45.9738 102.915 45.2511 99.1256 43.7409C98.6623 43.9447 98.2269 44.1208 97.7636 44.3153C98.3103 45.2974 98.8013 46.2796 99.2646 47.3265C99.7834 47.0671 100.451 46.8355 101.145 46.8355C102.943 46.8355 104.388 48.3087 104.388 48.5125C104.388 48.7719 102.943 50.2172 101.145 50.2172C100.886 50.2172 100.654 50.1895 100.395 50.1339C100.979 51.7831 101.433 53.5157 101.729 55.2853C102.248 55.3687 102.767 55.4614 103.295 55.517C107.807 54.646 112.032 52.1629 114.988 48.5958L116.72 50.069C114.839 52.3575 112.44 54.2383 109.771 55.6003C109.799 55.6003 109.799 55.6003 109.827 55.6003C110.262 55.5725 110.698 55.517 111.124 55.4521C116.59 54.785 121.89 53.0246 127.069 51.1438C126.94 50.1617 126.736 49.1796 126.476 48.2253ZM119.676 51.8942C118.749 51.8942 117.999 51.1438 117.999 50.2172C117.999 49.2907 118.749 48.5403 119.676 48.5403C120.602 48.5403 121.353 49.2907 121.353 50.2172C121.362 51.1438 120.602 51.8942 119.676 51.8942ZM106.047 14.7038C105.065 16.177 103.851 17.539 102.489 18.6693C104.861 19.0121 107.121 20.0591 108.854 21.7639L107.288 23.3853C105.055 21.2728 101.701 20.3463 98.7828 21.0968C98.6067 21.1802 98.4307 21.3006 98.2361 21.3562C96.3831 22.1994 93.9834 22.4866 91.6393 22.4866C89.2118 22.4866 86.8307 22.1716 85.2464 21.8473C85.2742 21.699 85.3019 21.5601 85.3297 21.4118C85.3853 21.208 85.4502 21.0041 85.478 20.8003C85.5614 20.4204 85.654 20.022 85.7096 19.6144C89.3601 20.337 94.5115 20.5409 97.3189 19.2716C97.5227 19.1882 97.7265 19.0955 97.9026 19.0121C97.9304 19.0121 97.986 18.9843 97.986 18.9565C98.0138 18.9288 98.0694 18.9288 98.1064 18.9288C98.1064 18.9288 98.1064 18.901 98.1342 18.901C100.627 17.5946 102.767 15.6304 104.268 13.2585C101.979 11.4332 99.5796 9.78403 97.0316 8.33866C93.27 8.88531 89.5084 10.655 86.1173 14.1294C86.0895 13.2585 86.0339 12.3598 85.9413 11.4981C88.202 9.27445 91.0093 7.61596 94.0112 6.7265C93.0013 6.17985 91.9821 5.6888 90.9444 5.25334C90.4256 5.79999 89.2952 6.52267 88.0259 6.52267C86.2285 6.52267 84.7831 5.0773 84.7831 4.81788C84.7831 4.66963 85.4502 3.94695 86.4323 3.51148C84.9035 2.93704 83.3377 2.43672 81.7441 2.03832C84.2642 7.338 85.1537 13.3789 84.2643 19.1419C83.7176 22.6163 82.5316 25.9147 80.8824 28.8332C83.2821 29.908 85.5706 31.2329 87.6553 32.7987C89.5361 32.7153 91.417 32.5393 93.2144 32.2243C100.682 30.955 107.538 26.6096 112.088 20.5316C110.216 18.4377 108.187 16.5013 106.047 14.7038ZM98.3473 11.6371C99.2739 11.6371 100.024 12.3875 100.024 13.3141C100.024 14.2684 99.2739 15.0188 98.3473 15.0188C97.4208 15.0188 96.6703 14.2684 96.6703 13.3141C96.6703 12.3968 97.4208 11.6371 98.3473 11.6371ZM90.5368 15.1115C91.6671 13.7495 93.7148 13.5457 93.8908 13.6939C94.0946 13.8422 94.2984 15.8898 93.1681 17.2796C92.0099 18.6693 89.9808 18.8732 89.7863 18.7249C89.6102 18.5581 89.3786 16.5013 90.5368 15.1115ZM89.147 28.6572C88.0166 30.047 85.9968 30.2786 85.793 30.1026C85.5891 29.9543 85.3853 27.9067 86.5157 26.5169C87.6738 25.1272 89.7307 24.9233 89.8975 25.0716C90.1013 25.2383 90.3051 27.2674 89.147 28.6572ZM94.8451 27.8789C93.9186 27.8789 93.1403 27.1284 93.1403 26.2019C93.1403 25.2754 93.9186 24.5249 94.8451 24.5249C95.7716 24.5249 96.5221 25.2754 96.5221 26.2019C96.5221 27.1192 95.7716 27.8789 94.8451 27.8789ZM102.165 26.2297C100.367 26.2297 98.9218 24.7844 98.9218 24.5249C98.9218 24.2655 100.367 22.8201 102.165 22.8201C103.962 22.8201 105.407 24.2933 105.407 24.5249C105.407 24.7751 103.962 26.2297 102.165 26.2297ZM78.8163 1.33419H78.7885C76.3888 0.815338 73.9521 0.463258 71.4412 0.259424C72.2844 1.44537 72.97 2.71469 73.5815 4.02108C72.8866 4.3083 72.1917 4.59552 71.5246 4.9476C70.6815 3.21501 69.6716 1.52875 68.4856 0.0555888H68.4579C67.6518 0.0277933 66.8643 0 66.0304 0C61.3422 0 56.8023 0.518853 52.4013 1.53802C56.4224 4.26199 59.8968 7.67157 62.7598 11.5537C62.2409 12.1281 61.7221 12.7396 61.2588 13.3789C58.1364 8.95016 54.0505 5.16069 49.4272 2.29775H49.3994C47.2591 2.87219 45.2022 3.56707 43.1732 4.41021C42.5061 10.9514 43.6642 17.6687 46.5827 23.5984C47.5648 25.6275 48.7786 27.5361 50.1406 29.3243C50.6594 29.0649 51.1783 28.8054 51.7342 28.5738C51.0671 28.3978 50.2333 27.9994 49.6496 27.2674C48.4914 25.8776 48.6952 23.8486 48.899 23.6818C49.0751 23.5336 51.132 23.7374 52.2808 25.1272C53.0313 26.0537 53.1796 27.2396 53.1518 27.9901C54.5693 27.4712 55.9869 27.0358 57.4601 26.6837C57.84 23.6725 58.7016 20.7262 60.0914 18.03C63.7048 10.97 70.7464 5.69809 78.5291 4.14154C78.8441 4.83642 79.1406 5.53131 79.3722 6.25399V6.30958C72.1083 7.61597 65.4837 12.4987 62.1205 19.0677C60.9901 21.3006 60.2119 23.7003 59.832 26.1834C61.8611 25.8035 63.9087 25.6367 66.0211 25.6367C66.9476 25.6367 67.8464 25.6645 68.7451 25.7479C67.8742 22.9684 66.3176 20.0776 64.6684 17.7057C65.1038 17.0386 65.5949 16.3994 66.1137 15.7971C68.0502 18.4933 70.1905 22.3105 71.1818 26.0166C72.2844 26.1649 73.3221 26.3687 74.3968 26.6281C74.5173 26.1093 74.7489 25.5904 75.1195 25.1272C76.2499 23.7374 78.2975 23.5336 78.5013 23.6818C78.6773 23.8578 78.8812 25.8776 77.7508 27.2674C77.6674 27.3508 77.5748 27.4712 77.4914 27.5268C77.8991 27.6473 78.3345 27.7863 78.7329 27.9345C80.3543 25.155 81.4847 22.0326 82.0036 18.762C82.9579 12.8601 81.7627 6.57828 78.8163 1.33419ZM48.7415 6.68946C49.6681 6.68946 50.4185 7.43994 50.4185 8.36645C50.4185 9.29297 49.6681 10.0434 48.7415 10.0434C47.815 10.0434 47.0645 9.29297 47.0645 8.36645C47.0645 7.43994 47.8243 6.68946 48.7415 6.68946ZM48.7415 20.0869C48.4821 20.0869 47.0368 18.6415 47.0368 16.8441C47.0368 15.0466 48.5099 13.6013 48.7415 13.6013C49.001 13.6013 50.4464 15.0466 50.4464 16.8441C50.4556 18.6415 49.0102 20.0869 48.7415 20.0869ZM53.8652 21.7732C52.9387 21.7732 52.1882 21.0227 52.1882 20.0962C52.1882 19.1697 52.9387 18.4192 53.8652 18.4192C54.7917 18.4192 55.5422 19.1697 55.5422 20.0962C55.5422 21.0227 54.7917 21.7732 53.8652 21.7732ZM56.1815 15.4358C55.9777 15.6118 53.9208 15.3802 52.7997 13.9904C51.6693 12.6006 51.8732 10.5715 52.077 10.4048C52.2531 10.2565 54.3007 10.4604 55.431 11.8501C56.5614 13.2307 56.3575 15.2875 56.1815 15.4358ZM63.6214 9.49681C62.6949 9.49681 61.9444 8.74633 61.9444 7.81981C61.9444 6.89329 62.6949 6.14282 63.6214 6.14282C64.5479 6.14282 65.2984 6.89329 65.2984 7.81981C65.2984 8.74633 64.5479 9.49681 63.6214 9.49681ZM63.6214 5.06805C61.824 5.06805 60.3786 3.62269 60.3786 3.36326C60.3786 3.13163 61.824 1.68624 63.6214 1.68624C65.4189 1.68624 66.892 3.13163 66.892 3.36326C66.892 3.62269 65.4189 5.06805 63.6214 5.06805ZM73.4333 21.7732C72.5067 21.7732 71.7563 21.0227 71.7563 20.0962C71.7563 19.1697 72.5067 18.4192 73.4333 18.4192C74.3598 18.4192 75.1103 19.1697 75.1103 20.0962C75.1103 21.0227 74.3598 21.7732 73.4333 21.7732ZM74.5636 13.9811C73.4054 15.3709 71.3857 15.6026 71.1818 15.4265C71.0058 15.2783 70.7742 13.2307 71.9323 11.8409C73.0627 10.4511 75.1195 10.2751 75.2863 10.3955C75.4901 10.5716 75.6847 12.5914 74.5636 13.9811ZM78.6403 20.3556C78.3809 20.3556 76.9355 18.9102 76.9355 17.1128C76.9355 15.3153 78.4087 13.87 78.6403 13.87C78.8997 13.87 80.3451 15.3153 80.3451 17.1128C80.3451 18.901 78.8997 20.3556 78.6403 20.3556ZM44.5537 32.7061C45.6841 31.8629 46.87 31.0847 48.1115 30.3898C46.7495 28.5645 45.5636 26.6281 44.5537 24.599C41.6259 18.6415 40.3287 11.9521 40.792 5.38307C39.5505 5.90192 38.3646 6.51341 37.1786 7.14344C37.9013 7.31948 38.4201 7.98658 38.4201 8.76485C38.4201 9.69137 37.6696 10.4418 36.7431 10.4418C35.7888 10.4418 35.0384 9.69137 35.0384 8.76485C35.0384 8.58881 35.0661 8.42204 35.1217 8.2738C33.1204 9.43194 31.2396 10.6735 29.3958 12.0355H29.3681C27.9505 14.6946 27.2 17.7057 27.2278 20.7169V21.0968C27.2278 21.1802 27.2556 21.3006 27.2556 21.384C27.4038 24.7102 28.4971 28.0086 30.3779 30.7882C30.4984 30.9642 30.6096 31.168 30.7207 31.3348L30.5447 31.4553C29.822 31.5664 29.0715 31.7147 28.3489 31.8629C26.1808 28.5923 24.9949 24.6824 24.9671 20.754C24.9393 18.7898 25.2265 16.7885 25.7732 14.9077C23.7719 16.5847 21.9003 18.4099 20.1585 20.3185C21.2888 20.4019 22.4192 20.6984 23.4569 21.1246C23.4847 21.8751 23.5402 22.6256 23.6607 23.3853L23.4846 23.6725C21.891 22.7738 20.0102 22.3661 18.1943 22.57C15.0348 26.3872 12.3201 30.6121 10.1521 35.1057C12.4684 35.1613 14.9885 35.8006 17.6476 37.07C19.2412 37.8204 20.7422 38.7192 22.2246 39.5623C23.6978 40.4332 25.208 41.2949 26.7367 42.0176C29.1642 43.1479 31.7121 43.8428 34.3156 44.2505C34.8345 43.324 35.4182 42.3974 36.0205 41.5265C35.9 41.4431 35.7888 41.3227 35.7054 41.2115C34.5751 39.8217 34.7789 37.7927 34.9828 37.6259C35.1588 37.4777 36.9192 37.6537 38.0773 38.784C39.2632 37.3387 40.5974 35.9767 42.015 34.7629C35.937 34.2997 29.7479 35.0502 24.0128 36.9588L23.2901 34.7907C30.0537 32.5393 37.4288 31.8444 44.5537 32.7061ZM30.8042 36.5604C31.7307 36.5604 32.4812 37.3109 32.4812 38.2374C32.4812 39.1639 31.7307 39.9144 30.8042 39.9144C29.8776 39.9144 29.1272 39.1639 29.1272 38.2374C29.1272 37.3109 29.8776 36.5604 30.8042 36.5604ZM14.5715 34.2997C13.8211 34.0681 13.0613 33.9198 12.3387 33.8086C13.0891 30.362 14.6827 27.1562 16.999 24.4323L18.7316 25.9054C16.6562 28.3422 15.2294 31.2329 14.5715 34.2997ZM23.3642 32.4466C23.1604 32.5949 21.1035 32.3911 19.9732 31.0013C18.8428 29.6115 19.0466 27.5824 19.2505 27.4157C19.4265 27.2674 21.4834 27.4712 22.6045 28.861C23.7441 30.2508 23.5402 32.2706 23.3642 32.4466ZM43.1361 27.8141C43.1361 28.0179 42.2096 29 40.9032 29.3799C40.5882 29.4633 40.2361 29.5281 39.8933 29.5281C38.3275 29.5281 37.0304 28.4256 36.7061 27.9623C36.6783 27.9067 36.6505 27.8511 36.6505 27.8141C36.6505 27.5546 38.0959 26.1093 39.8933 26.1093C41.6815 26.1093 43.1361 27.5824 43.1361 27.8141ZM30.4521 12.9712C33.2594 11.9891 36.3818 11.9891 39.5135 12.999C39.5968 13.8422 39.7451 14.7038 39.9211 15.547C36.4745 14.1572 32.3422 14.3332 29.331 15.9824C29.5904 14.9355 29.9888 13.9256 30.4521 12.9712ZM30.9153 23.3575C30.6559 23.3575 29.2105 21.8843 29.2105 20.1147C29.2105 18.3172 30.6837 16.8441 30.9153 16.8441C31.1748 16.8441 32.5923 18.3172 32.5923 20.1147C32.6016 21.8843 31.184 23.3575 30.9153 23.3575ZM36.039 21.6805C36.9655 21.6805 37.716 22.431 37.716 23.3575C37.716 24.284 36.9655 25.0345 36.039 25.0345C35.1125 25.0345 34.362 24.284 34.362 23.3575C34.362 22.431 35.1125 21.6805 36.039 21.6805ZM25.7361 44.0837C24.1147 43.3332 22.5489 42.4345 21.0479 41.5358C19.6303 40.7297 18.1572 39.8588 16.6469 39.1361C13.8396 37.8297 11.3195 37.2552 9.06803 37.4591C8.71595 38.2651 8.37314 39.0805 8.08592 39.8866C8.54918 40.2665 9.55911 41.5358 9.55911 43.0367C9.55911 44.7971 8.11374 46.2795 7.88211 46.2795C7.70607 46.2795 6.95559 45.5569 6.49234 44.547C6.23291 45.4179 6.00128 46.2518 5.79745 47.1505C7.82652 47.1227 9.81853 47.5303 11.6438 48.3086C12.2553 49.6984 13.0335 51.0048 13.9878 52.1537C14.0712 52.2371 14.1639 52.3297 14.2195 52.4131C11.4677 50.5323 8.80863 49.1981 5.2786 49.4297C4.84314 51.4866 4.52812 53.5434 4.29649 55.6559C4.55592 55.5725 4.84311 55.5447 5.1396 55.5447C6.93704 55.5447 8.41023 57.0179 8.41023 57.2495C8.41023 57.509 6.93704 58.9543 5.1396 58.9543C4.75973 58.9543 4.41694 58.8987 4.06486 58.7783C4.03707 59.3249 4.00924 59.8808 4.03704 60.4275C12.3757 62.6233 21.8076 60.9463 28.7565 55.8505C29.331 55.415 29.9147 54.9795 30.4614 54.4885C31.0451 51.6255 31.9623 48.9016 33.2131 46.3537C30.6837 45.9368 28.1728 45.2141 25.7361 44.0837ZM27.8207 49.2351C27.8207 49.4946 26.3754 50.94 24.5779 50.94C22.7805 50.94 21.3351 49.4946 21.3351 49.2351C21.3351 48.9757 22.7805 47.5304 24.5779 47.5304C26.3754 47.5304 27.8207 49.0035 27.8207 49.2351ZM20.0102 42.5179C20.9367 42.5179 21.6872 43.2684 21.6872 44.1949C21.6872 45.1214 20.9367 45.8719 20.0102 45.8719C19.0837 45.8719 18.3332 45.1214 18.3332 44.1949C18.3332 43.2684 19.0837 42.5179 20.0102 42.5179ZM8.80863 55.1093C7.88211 55.1093 7.13164 54.3588 7.13164 53.4323C7.13164 52.478 7.88211 51.7275 8.80863 51.7275C9.73515 51.7275 10.4856 52.478 10.4856 53.4323C10.4856 54.3588 9.73515 55.1093 8.80863 55.1093ZM16.5636 59.3064C16.3597 59.4824 14.3306 59.2786 13.1725 57.8888C12.0421 56.4991 12.246 54.4422 12.4498 54.3032C12.6259 54.155 14.6827 54.331 15.8038 55.7208C16.9712 57.1013 16.7396 59.1581 16.5636 59.3064ZM27.8486 54.646C26.8943 55.3409 25.8843 55.9802 24.8096 56.5547C21.0757 56.0358 17.5735 54.0994 15.1738 51.1716C12.422 47.8732 11.2083 43.324 11.9032 39.099C12.6259 39.2473 13.3486 39.4511 14.1361 39.7383C13.6173 43.2406 14.655 46.9744 16.9157 49.754C19.2875 52.6169 23.1048 54.331 28.1451 54.4144C28.0524 54.4978 27.969 54.5626 27.8486 54.646ZM127.468 53.4323C122.289 55.3131 116.989 57.0457 111.439 57.7128C108.659 58.0556 105.945 58.0926 103.397 57.7962C103.276 57.7962 103.193 57.7962 103.11 57.7684C102.758 57.7406 102.443 57.685 102.128 57.6201C102.331 59.0655 102.415 60.5387 102.415 62.0489C102.415 79.9029 89.5084 94.7828 72.516 97.8217C71.6729 98.8038 70.7556 99.7582 69.7365 100.629C72.3678 103.325 75.8422 104.622 78.4735 105.262C82.3556 106.188 86.4323 106.244 90.4256 106.299C97.569 106.383 103.684 106.448 109.234 106.503C120.834 95.246 128.07 79.4767 128.07 62.0489C128.07 59.1304 127.866 56.2396 127.468 53.4323ZM90.3885 108.56C86.2748 108.505 82.0499 108.44 77.9176 107.458C74.962 106.763 70.9687 105.225 67.9668 102.074C65.215 104.187 62.0371 105.864 58.6182 107.078C53.6706 108.81 48.8991 109.107 44.007 109.107C42.7655 109.107 41.4869 109.079 40.2454 109.079C39.115 109.051 37.9847 109.023 36.8358 109.023C32.8981 109.023 29.1364 108.996 25.5508 108.996C36.4281 118.4 50.5853 124.07 66.0396 124.07C81.6422 124.07 95.9013 118.279 106.816 108.764C101.877 108.708 96.5221 108.643 90.3885 108.56ZM66.0211 98.4333C65.7617 98.4333 65.5022 98.4332 65.2428 98.4054L65.1872 98.4889C64.6128 98.9243 64.0013 99.332 63.3898 99.7304C62.5466 99.2115 61.7406 98.6927 60.9901 98.0534C43.3029 95.6259 29.646 80.4032 29.646 62.0489C29.646 60.6313 29.7294 59.2415 29.9054 57.8517C24.5501 61.669 17.9811 63.6703 11.3843 63.6703C8.89199 63.6703 6.40895 63.3831 4 62.7716C4.17604 80.0233 11.44 95.5611 23.0122 106.707C27.3853 106.735 31.9531 106.735 36.8451 106.763C37.9754 106.763 39.1336 106.763 40.2639 106.79C46.3141 106.874 52.0122 106.966 57.8585 104.937C62.0834 103.436 65.8728 101.176 68.884 98.285C67.9668 98.4054 66.9754 98.4333 66.0211 98.4333ZM117.508 27.499C117.86 28.0179 118.175 28.5738 118.518 29.0927C118.434 30.7696 117.1 32.1038 116.841 32.1038C116.581 32.1038 115.136 30.6585 115.136 28.861C115.136 27.5917 115.914 26.4613 116.405 25.9425C115.506 24.701 114.552 23.4872 113.57 22.292C108.706 28.6016 101.442 33.1137 93.5758 34.4757C92.4454 34.6796 91.315 34.7907 90.1939 34.8834C92.6492 37.0514 94.8266 39.5716 96.5869 42.3511C97.4579 41.999 98.2917 41.6284 99.1349 41.2486C100.034 40.8131 100.932 40.3498 101.831 39.9144C104.092 38.784 106.436 37.6259 108.919 36.792C109.178 36.7086 109.41 36.6159 109.669 36.5326L109.614 36.477C111.087 35.0038 111.55 30.1674 111.18 27.2118C111.874 26.5447 112.569 25.8498 113.209 25.0994C113.82 27.8233 113.7 32.5671 112.569 35.6895H112.597C115.488 34.9668 118.471 34.4757 121.482 34.2997C120.343 31.9556 119.009 29.6671 117.508 27.499ZM96.5221 39.9144C95.5956 39.9144 94.8451 39.1639 94.8451 38.2374C94.8451 37.3109 95.5956 36.5604 96.5221 36.5604C97.4486 36.5604 98.1991 37.3109 98.1991 38.2374C98.2083 39.1639 97.4486 39.9144 96.5221 39.9144ZM103.99 36.1527C102.424 37.0514 100.46 36.5326 100.312 36.3009C100.191 36.0971 100.747 34.1051 102.276 33.2064C103.842 32.3355 105.834 32.8914 105.954 33.0581C106.074 33.2898 105.556 35.254 103.99 36.1527ZM122.539 36.5326C118.11 36.7364 113.709 37.5425 109.632 38.9323C107.316 39.7383 105.028 40.8687 102.832 41.9435C102.572 42.0917 102.313 42.2029 102.016 42.3511C109.308 44.6118 117.415 44.0281 124.271 40.7575C123.734 39.34 123.178 37.9223 122.539 36.5326ZM116.841 41.8508C115.043 41.8508 113.598 40.4054 113.598 40.146C113.598 39.9144 115.043 38.469 116.841 38.469C118.638 38.469 120.083 39.9144 120.083 40.146C120.083 40.4054 118.638 41.8508 116.841 41.8508Z" fill="#00B2EB"/>
</g>
<defs>
<filter id="filter0_d_1_519" x="0" y="0" width="132.07" height="132.07" filterUnits="userSpaceOnUse" color-interpolation-filters="sRGB">
<feFlood flood-opacity="0" result="BackgroundImageFix"/>
<feColorMatrix in="SourceAlpha" type="matrix" values="0 0 0 0 0 0 0 0 0 0 0 0 0 0 0 0 0 0 127 0" result="hardAlpha"/>
<feOffset dy="4"/>
<feGaussianBlur stdDeviation="2"/>
<feComposite in2="hardAlpha" operator="out"/>
<feColorMatrix type="matrix" values="0 0 0 0 0.708333 0 0 0 0 0.708333 0 0 0 0 0.708333 0 0 0 0.28 0"/>
<feBlend mode="normal" in2="BackgroundImageFix" result="effect1_dropShadow_1_519"/>
<feBlend mode="normal" in="SourceGraphic" in2="effect1_dropShadow_1_519" result="shape"/>
</filter>
</defs>
</svg>
