<svg width="549" height="133" viewBox="0 0 549 133" fill="none" xmlns="http://www.w3.org/2000/svg">
<g filter="url(#filter0_d_1_519)">
<path d="M423.204 50.1421C421.758 49.8549 420.684 48.7524 420.684 48.5207C420.684 48.3725 421.23 47.7981 422.073 47.3348C422.481 48.2613 422.861 49.1878 423.204 50.1421Z" fill="white"/>
<path d="M414.53 41.2848C415.732 39.9566 416.143 38.3707 415.448 37.7426C414.754 37.1144 413.217 37.6819 412.015 39.01C410.814 40.3382 410.403 41.9241 411.098 42.5523C411.792 43.1804 413.329 42.6129 414.53 41.2848Z" fill="white"/>
<path d="M396.213 44.1071C397.345 42.7198 397.675 41.1151 396.95 40.5229C396.225 39.9307 394.719 40.5753 393.586 41.9625C392.453 43.3498 392.123 44.9545 392.849 45.5467C393.574 46.1389 395.08 45.4943 396.213 44.1071Z" fill="white"/>
<path d="M380.21 45.5519C380.936 44.9597 380.606 43.355 379.473 41.9677C378.34 40.5805 376.834 39.9359 376.109 40.5281C375.384 41.1203 375.714 42.7249 376.846 44.1122C377.979 45.4995 379.485 46.1441 380.21 45.5519Z" fill="white"/>
<path d="M361.876 42.6749C361.7 42.8231 359.968 42.6471 358.81 41.5445C359.449 40.5902 360.144 39.6915 360.867 38.7927C360.95 38.8761 361.043 38.9688 361.126 39.08C362.256 40.479 362.053 42.5266 361.876 42.6749Z" fill="white"/>
<path d="M400.283 27.5356C399.125 28.6937 397.392 28.8976 397.188 28.7215C397.04 28.6381 396.929 27.6838 397.188 26.6369C398.226 26.8685 399.273 27.165 400.283 27.5356Z" fill="white"/>
<path d="M375.94 27.9997C375.913 28.4074 375.885 28.6668 375.792 28.7224C375.709 28.778 375.181 28.778 374.523 28.5742C374.986 28.3796 375.477 28.2036 375.94 27.9997Z" fill="white"/>
<path d="M363.757 29.5372C363.757 29.7966 362.311 31.2142 360.514 31.2142C358.716 31.2142 357.271 29.7966 357.271 29.5372C357.271 29.3334 358.198 28.3513 359.504 27.9714C359.819 28.4346 361.125 29.5372 362.691 29.5372C363.043 29.5372 363.386 29.4816 363.701 29.389C363.729 29.4446 363.757 29.5094 363.757 29.5372Z" fill="white"/>
<path d="M397.186 95.3947C396.602 96.2378 396 97.0439 395.305 97.8222C394.119 98.0538 392.961 98.2298 391.72 98.2854C393.082 97.0161 394.295 95.6263 395.305 94.1161C398.891 88.909 400.253 82.3956 398.919 76.6975C397.242 69.3502 391.544 64.1061 386.911 60.6688C386.475 61.2803 386.04 61.9103 385.614 62.5496C385.614 62.5218 385.586 62.5218 385.558 62.494C385.151 62.179 384.743 61.8825 384.344 61.5953L383.798 61.2154C384.233 60.5761 384.669 59.946 385.095 59.3067C385.53 58.6674 385.966 58.0652 386.401 57.4537C386.809 56.9071 387.18 56.4438 387.587 55.8879C387.615 55.8601 387.643 55.8045 387.671 55.7397C388.19 55.0448 388.708 54.3777 389.237 53.7106V56.7218C389.357 56.8052 389.468 56.8978 389.589 56.9534C389.561 56.9812 389.561 57.009 389.561 57.009C389.125 57.5834 388.69 58.1671 388.227 58.8064C393.202 62.4847 399.308 68.0716 401.161 76.1694C402.597 82.4883 401.124 89.6595 397.186 95.3947Z" fill="white"/>
<path d="M397.188 95.3944C396.604 96.2375 396.002 97.0436 395.307 97.8219C394.121 98.0535 392.963 98.2296 391.722 98.2851C393.083 97.0158 394.297 95.626 395.307 94.1158C398.893 88.9088 400.255 82.3954 398.921 76.6973C397.244 69.35 391.545 64.1059 386.913 60.6685C386.477 60.3535 386.042 60.0292 385.644 59.742L386.051 59.1953L386.978 57.889C387.385 58.1762 387.821 58.5005 388.219 58.8155C393.195 62.4938 399.3 68.0807 401.153 76.1784C402.599 82.488 401.126 89.6593 397.188 95.3944Z" fill="white"/>
<path d="M393.741 70.6188H380.918V68.3488H391.981C392.629 69.0993 393.222 69.8498 393.741 70.6188Z" fill="white"/>
<path d="M396.946 78.4014H377.193V76.1315H396.427C396.538 76.4928 396.631 76.8542 396.714 77.2248C396.807 77.6047 396.881 78.003 396.946 78.4014Z" fill="white"/>
<path d="M396.944 83.9049C396.833 84.6646 396.685 85.4244 396.481 86.1749H376.922V83.9049H396.944Z" fill="white"/>
<path d="M394.176 91.6877C393.944 92.0768 393.703 92.4567 393.444 92.8273C393.185 93.2072 392.907 93.5871 392.61 93.9577H380.019V91.6877H394.176Z" fill="white"/>
<path d="M424.907 57.6288C421.024 57.0821 417.494 55.8036 414.604 53.8949C413.501 53.1444 412.436 52.3013 411.416 51.4952C409.128 49.67 406.96 47.9652 404.356 47.4463C401.197 46.8348 397.583 48.1968 394.721 51.032C392.895 52.8294 391.302 54.7381 389.625 56.8505C389.597 56.9061 389.597 56.9339 389.569 56.971C389.541 56.9988 389.541 57.0266 389.541 57.0266C389.106 57.601 388.67 58.1847 388.207 58.824C387.772 59.4355 387.336 60.0377 386.901 60.677C386.465 61.2885 386.03 61.9186 385.604 62.5579C385.316 62.9933 384.992 63.4566 384.677 63.9199C383.695 65.393 382.741 66.8754 381.87 68.3486C381.555 68.923 381.23 69.5067 380.915 70.0812C379.878 72.0176 379.035 74.0189 378.451 76.1314C378.247 76.8819 378.099 77.6323 377.988 78.3921V78.4199C377.7 80.1895 377.636 81.9777 377.867 83.9141C377.895 84.3218 377.951 84.7573 378.043 85.1557C378.099 85.4985 378.164 85.8505 378.247 86.1655V86.1934C378.766 88.3058 379.637 90.1033 380.702 91.6876C381.249 92.4937 381.888 93.2534 382.528 93.9483L382.555 93.9761C384.316 95.8569 386.317 97.2189 388.114 98.2288L388.031 98.4049C386.586 98.4049 385.168 98.2844 383.778 98.0621C379.47 94.7915 376.69 90.4461 375.82 85.5633C374.198 76.4186 378.367 69.2381 382.796 62.6413C383.111 62.178 383.463 61.6869 383.778 61.2237C384.214 60.5844 384.649 59.9543 385.075 59.315C385.511 58.6757 385.946 58.0735 386.382 57.462C386.79 56.9154 387.16 56.4521 387.568 55.8962C387.596 55.8684 387.623 55.8128 387.651 55.748C388.17 55.0531 388.689 54.386 389.217 53.7189C389.884 52.9128 390.551 52.1253 391.274 51.347C391.848 50.6799 392.46 50.0406 393.099 49.4105C396.11 46.455 399.816 44.8984 403.282 45.0374C403.634 45.0652 403.976 45.093 404.291 45.1208H404.319C404.467 45.1486 404.606 45.1764 404.783 45.2042C405.45 45.3524 406.117 45.5192 406.747 45.7786C407.59 46.1214 408.424 46.5569 409.211 47.0479C410.481 47.8262 411.676 48.7805 412.825 49.6792C413.807 50.4853 414.826 51.2729 415.836 51.9677C418.328 53.5892 421.275 54.6917 424.517 55.2662C424.703 56.0352 424.823 56.8412 424.907 57.6288Z" fill="white"/>
<path d="M420.573 44.3251C419.878 44.5846 419.183 44.8717 418.488 45.1034C415.477 46.1133 412.355 46.7804 409.232 47.0676C408.018 47.1881 406.805 47.2159 405.582 47.2159C404.776 47.2159 403.96 47.2159 403.182 47.1603L403.303 45.0478L403.33 44.8717C403.738 44.8995 404.109 44.9274 404.516 44.9274C404.924 44.9274 405.295 44.9552 405.702 44.9552C406.249 44.9552 406.805 44.9274 407.351 44.8996C410.881 44.7513 414.411 44.0935 417.738 42.9631L419.387 42.3516C419.822 42.9909 420.193 43.658 420.573 44.3251Z" fill="white"/>
<path d="M405.869 46.8172L404.257 45.2144C406.045 43.4169 406.87 40.6559 406.342 38.1728L408.566 37.7003C409.26 40.9616 408.223 44.4546 405.869 46.8172Z" fill="white"/>
<path d="M385.235 56.5634L383.409 57.6937L383.326 57.7493C383.122 57.462 382.946 57.1378 382.742 56.8506C382.622 56.6467 382.483 56.4707 382.399 56.2761C382.372 56.2483 382.344 56.2205 382.344 56.1557C380.611 53.3483 378.925 50.6892 376.266 49.0956C371.402 46.1771 366.25 46.8071 360.895 50.9764C359.709 51.9029 358.523 52.9407 357.393 53.9598C355.975 55.2292 354.502 56.5356 352.908 57.7215C352.853 57.7771 352.76 57.8049 352.704 57.8697C352.825 56.7394 352.992 55.609 353.251 54.5157C354.15 53.793 355.021 53.0148 355.882 52.255C357.041 51.2451 358.254 50.1703 359.496 49.1882C360.571 48.3451 361.664 47.6224 362.739 47.048C363.776 46.4735 364.795 46.0381 365.805 45.7138C366.649 45.4544 367.482 45.2505 368.326 45.1394C368.668 45.1116 369.048 45.0559 369.391 45.0559C372.143 44.9077 374.83 45.6026 377.405 47.1406C378.74 47.9467 379.833 48.9659 380.824 50.0592C382.158 51.5972 383.224 53.302 384.271 55.0067C384.299 55.0623 384.327 55.0902 384.354 55.155C384.438 55.3033 384.53 55.47 384.642 55.6183C384.855 55.924 385.058 56.2483 385.235 56.5634Z" fill="white"/>
<path d="M385.235 56.5634L383.409 57.6937L383.326 57.7493C383.122 57.462 382.946 57.1378 382.742 56.8506C382.622 56.6467 382.483 56.4707 382.399 56.2761C382.372 56.2483 382.344 56.2205 382.344 56.1557C380.611 53.3483 378.925 50.6892 376.266 49.0956C371.402 46.1771 366.25 46.8071 360.895 50.9764C359.709 51.9029 358.523 52.9407 357.393 53.9598C355.975 55.2292 354.502 56.5356 352.908 57.7215C352.853 57.7771 352.76 57.8049 352.704 57.8697C352.825 56.7394 352.992 55.609 353.251 54.5157C354.15 53.793 355.021 53.0148 355.882 52.255C357.041 51.2451 358.254 50.1703 359.496 49.1882C360.571 48.3451 361.664 47.6224 362.739 47.048C363.776 46.4735 364.795 46.0381 365.805 45.7138C366.649 45.4544 367.482 45.2505 368.326 45.1394C368.668 45.1116 369.048 45.0559 369.391 45.0559C372.143 44.9077 374.83 45.6026 377.405 47.1406C378.74 47.9467 379.833 48.9659 380.824 50.0592C382.158 51.5972 383.224 53.302 384.271 55.0067C384.299 55.0623 384.327 55.0902 384.354 55.155C384.438 55.3033 384.53 55.47 384.642 55.6183C384.855 55.924 385.058 56.2483 385.235 56.5634Z" fill="white"/>
<path d="M369.401 44.816V47.1045H367.437C365.871 47.1045 364.315 47.1045 362.749 47.0489C360.488 46.9655 358.237 46.7617 356.004 46.3818C356.356 45.6591 356.699 44.9643 357.107 44.2694C359.766 44.677 362.462 44.7882 365.177 44.816H369.401Z" fill="white"/>
<path d="M366.798 46.8162C365.547 45.6209 364.611 44.12 364.092 42.4801C363.574 40.8309 363.472 39.0705 363.814 37.3749L366.047 37.8196C365.788 39.1353 365.862 40.5159 366.26 41.7944C366.668 43.073 367.391 44.2497 368.364 45.1762L366.798 46.8162Z" fill="white"/>
<path d="M384.362 40.0159C383.75 40.6274 383.176 41.2296 382.657 41.8689C382.481 41.4335 382.194 40.7386 382.083 40.4514C381.592 39.321 381.212 38.1629 380.897 36.9769C380.026 33.6507 379.822 30.1485 380.257 26.7018C381.036 26.498 381.823 26.322 382.629 26.2108C381.934 30.4357 382.37 34.8644 383.871 38.8577C383.954 39.0338 384.019 39.2376 384.102 39.4044C384.186 39.6083 384.278 39.8121 384.362 40.0159Z" fill="white"/>
<path d="M384.104 39.4038L383.206 41.0808C382.826 40.877 382.455 40.6453 382.075 40.4415C380.63 39.5706 379.24 38.6441 377.934 37.6064C376.488 36.476 375.126 35.2623 373.885 33.9281C373.885 33.9281 373.885 33.9281 373.857 33.9281C372.819 32.8255 371.8 31.6396 370.901 30.398C371.569 29.9904 372.236 29.6476 372.931 29.3233C374.691 31.6674 376.776 33.7798 379.064 35.6051C379.147 35.6607 379.212 35.7163 379.296 35.8089C379.815 36.2166 380.37 36.5872 380.889 36.9671C381.871 37.6619 382.854 38.2734 383.873 38.8479C383.965 39.0239 384.021 39.2278 384.104 39.4038Z" fill="white"/>
<path d="M379.304 35.8196L378.498 37.8487C378.322 37.7653 378.118 37.7005 377.951 37.6171C373.782 36.0513 369.325 35.0691 364.813 34.7819C365.619 34.0592 366.462 33.3643 367.361 32.725C369.557 32.9567 371.762 33.3644 373.875 33.9388C373.902 33.9388 373.902 33.9388 373.902 33.9388C375.663 34.4021 377.377 34.9487 379.082 35.6158C379.156 35.6714 379.211 35.727 379.304 35.8196Z" fill="white"/>
<path d="M379.304 35.8196L378.498 37.8487C378.322 37.7653 378.118 37.7005 377.951 37.6171C373.782 36.0513 369.325 35.0691 364.813 34.7819C365.619 34.0592 366.462 33.3643 367.361 32.725C369.557 32.9567 371.762 33.3644 373.875 33.9388C373.902 33.9388 373.902 33.9388 373.902 33.9388C375.663 34.4021 377.377 34.9487 379.082 35.6158C379.156 35.6714 379.211 35.727 379.304 35.8196Z" fill="white"/>
<path d="M412.982 34.8928C411.389 35.0411 409.832 35.1245 408.266 35.18C404.153 35.3561 400.252 35.5229 396.574 36.857C393.387 38.043 390.551 39.6366 388.328 41.4896C388.179 41.6379 388.013 41.7769 387.864 41.8973C385.835 43.6577 384.362 45.6311 383.64 47.6602C382.713 50.1155 382.945 52.6078 384.279 55.0075C384.307 55.0631 384.334 55.0909 384.362 55.1558C384.446 55.304 384.538 55.4708 384.649 55.619C385.196 56.3695 385.891 57.0366 386.382 57.4721C386.697 57.7315 386.929 57.8797 386.957 57.9075L386.03 59.2139L385.622 59.7605C385.595 59.7327 385.391 59.5845 385.076 59.3251C384.64 58.973 384.01 58.3986 383.399 57.7037C383.167 57.4443 382.935 57.157 382.732 56.8605C382.611 56.6567 382.472 56.4807 382.389 56.2861C382.361 56.2583 382.333 56.2305 382.333 56.1656C381.203 54.2014 380.712 52.1446 380.832 50.0599C380.888 48.9852 381.092 47.9197 381.499 46.8727C382.37 44.5008 384.075 42.2123 386.391 40.1554C388.272 38.534 390.505 37.0609 393.044 35.9027L393.072 35.8749C393.942 35.4673 394.869 35.0689 395.795 34.7446C395.823 34.7168 395.851 34.7168 395.879 34.7168C397.296 34.1979 398.742 33.8459 400.224 33.5864C402.856 33.151 405.552 33.0398 408.183 32.9193C408.934 32.8915 409.684 32.8637 410.444 32.7989C411.333 33.4752 412.176 34.1701 412.982 34.8928Z" fill="white"/>
<path d="M412.982 34.8928C411.389 35.0411 409.832 35.1245 408.266 35.18C404.153 35.3561 400.252 35.5229 396.574 36.857C393.387 38.043 390.551 39.6366 388.328 41.4896C388.179 41.6379 388.013 41.7769 387.864 41.8973C385.835 43.6577 384.362 45.6311 383.64 47.6602C382.713 50.1155 382.945 52.6078 384.279 55.0075C384.307 55.0631 384.334 55.0909 384.362 55.1558C384.446 55.304 384.538 55.4708 384.649 55.619C385.196 56.3695 385.891 57.0366 386.382 57.4721C386.697 57.7315 386.929 57.8797 386.957 57.9075L386.03 59.2139L385.622 59.7605C385.595 59.7327 385.391 59.5845 385.076 59.3251C384.64 58.973 384.01 58.3986 383.399 57.7037C383.167 57.4443 382.935 57.157 382.732 56.8605C382.611 56.6567 382.472 56.4807 382.389 56.2861C382.361 56.2583 382.333 56.2305 382.333 56.1656C381.203 54.2014 380.712 52.1446 380.832 50.0599C380.888 48.9852 381.092 47.9197 381.499 46.8727C382.37 44.5008 384.075 42.2123 386.391 40.1554C388.272 38.534 390.505 37.0609 393.044 35.9027L393.072 35.8749C393.942 35.4673 394.869 35.0689 395.795 34.7446C395.823 34.7168 395.851 34.7168 395.879 34.7168C397.296 34.1979 398.742 33.8459 400.224 33.5864C402.856 33.151 405.552 33.0398 408.183 32.9193C408.934 32.8915 409.684 32.8637 410.444 32.7989C411.333 33.4752 412.176 34.1701 412.982 34.8928Z" fill="white"/>
<path d="M394.584 30.4358C394.528 32.4927 393.916 34.2808 393.083 35.8744L393.055 35.9022C391.841 38.1629 390.044 39.9789 388.339 41.4891C388.191 41.6374 388.024 41.7764 387.876 41.8968L386.402 40.1642C390.424 36.7176 392.221 33.799 392.332 30.3524C392.36 28.9626 392.073 27.3968 391.554 25.7754C392.397 25.831 393.175 25.9236 393.981 26.0348C394.408 27.5358 394.639 29.046 394.584 30.4358Z" fill="white"/>
<path d="M401.53 27.9432C402.252 28.2026 402.975 28.5176 403.67 28.8419C402.688 30.5745 401.53 32.1681 400.223 33.5857C399.297 34.6234 398.259 35.5499 397.184 36.393L395.878 34.716L395.795 34.5956C398.055 32.863 399.992 30.5745 401.53 27.9432Z" fill="white"/>
<path d="M401.53 27.9432C402.252 28.2026 402.975 28.5176 403.67 28.8419C402.688 30.5745 401.53 32.1681 400.223 33.5857C399.297 34.6234 398.259 35.5499 397.184 36.393L395.878 34.716L395.795 34.5956C398.055 32.863 399.992 30.5745 401.53 27.9432Z" fill="white"/>
<path d="M389.543 57.0183L387.57 55.8879C387.968 55.2023 388.987 53.0806 388.997 51.5055C389.015 48.3646 386.43 46.1132 386.402 46.0854L387.876 44.3528C388.015 44.4732 391.294 47.2899 391.276 51.5148C391.257 54.0071 389.617 56.8886 389.543 57.0183Z" fill="white"/>
<path d="M448.526 45.131C448.554 45.2504 448.581 45.3882 448.609 45.5076C448.581 45.3882 448.526 45.2504 448.489 45.131H448.526Z" fill="white"/>
<path d="M449.304 48.2035C449.304 48.2035 449.276 48.2035 449.276 48.2311C449.249 48.0841 449.221 47.9187 449.193 47.7717C449.249 47.9095 449.276 48.0566 449.304 48.2035Z" fill="white"/>
<path d="M401.43 41.8509C402.362 41.8509 403.117 41.0959 403.117 40.1646C403.117 39.2334 402.362 38.4784 401.43 38.4784C400.499 38.4784 399.744 39.2334 399.744 40.1646C399.744 41.0959 400.499 41.8509 401.43 41.8509Z" fill="white"/>
<path d="M387.133 33.8555C388.924 33.8555 390.376 33.0964 390.376 32.16C390.376 31.2236 388.924 30.4645 387.133 30.4645C385.342 30.4645 383.89 31.2236 383.89 32.16C383.89 33.0964 385.342 33.8555 387.133 33.8555Z" fill="white"/>
<path d="M387.135 29.3885C388.066 29.3885 388.821 28.6335 388.821 27.7022C388.821 26.7709 388.066 26.016 387.135 26.016C386.203 26.016 385.448 26.7709 385.448 27.7022C385.448 28.6335 386.203 29.3885 387.135 29.3885Z" fill="white"/>
<path d="M371.541 41.8509C372.472 41.8509 373.227 41.0959 373.227 40.1646C373.227 39.2334 372.472 38.4784 371.541 38.4784C370.61 38.4784 369.855 39.2334 369.855 40.1646C369.855 41.0959 370.61 41.8509 371.541 41.8509Z" fill="white"/>
<path d="M353.547 31.3261L353.519 31.3538C353.398 31.1778 353.287 30.974 353.167 30.8072C353.287 30.9832 353.398 31.1593 353.547 31.3261Z" fill="white"/>
<path d="M426.185 57.8143C426.102 57.8418 425.983 57.8418 425.9 57.8694V57.7867C425.983 57.8142 426.065 57.8143 426.185 57.8143Z" fill="white"/>
<path d="M420.71 18.9648C420.71 18.971 420.698 18.9771 420.692 18.9771V18.9648C420.696 18.9648 420.704 18.9586 420.71 18.9648Z" fill="white"/>
<path d="M423.204 50.1421C421.758 49.8549 420.684 48.7524 420.684 48.5207C420.684 48.3725 421.23 47.7981 422.073 47.3348C422.481 48.2613 422.861 49.1878 423.204 50.1421Z" fill="white"/>
<path d="M414.53 41.2848C415.732 39.9566 416.143 38.3707 415.448 37.7426C414.754 37.1144 413.217 37.6819 412.015 39.01C410.814 40.3382 410.403 41.9241 411.098 42.5523C411.792 43.1804 413.329 42.6129 414.53 41.2848Z" fill="white"/>
<path d="M396.213 44.1071C397.345 42.7198 397.675 41.1151 396.95 40.5229C396.225 39.9307 394.719 40.5753 393.586 41.9625C392.453 43.3498 392.123 44.9545 392.849 45.5467C393.574 46.1389 395.08 45.4943 396.213 44.1071Z" fill="white"/>
<path d="M380.21 45.5519C380.936 44.9597 380.606 43.355 379.473 41.9677C378.34 40.5805 376.834 39.9359 376.109 40.5281C375.384 41.1203 375.714 42.7249 376.846 44.1122C377.979 45.4995 379.485 46.1441 380.21 45.5519Z" fill="white"/>
<path d="M361.876 42.6749C361.7 42.8231 359.968 42.6471 358.81 41.5445C359.449 40.5902 360.144 39.6915 360.867 38.7927C360.95 38.8761 361.043 38.9688 361.126 39.08C362.256 40.479 362.053 42.5266 361.876 42.6749Z" fill="white"/>
<path d="M400.283 27.5356C399.125 28.6937 397.392 28.8976 397.188 28.7215C397.04 28.6381 396.929 27.6838 397.188 26.6369C398.226 26.8685 399.273 27.165 400.283 27.5356Z" fill="white"/>
<path d="M375.94 27.9997C375.913 28.4074 375.885 28.6668 375.792 28.7224C375.709 28.778 375.181 28.778 374.523 28.5742C374.986 28.3796 375.477 28.2036 375.94 27.9997Z" fill="white"/>
<path d="M397.186 95.3947C396.602 96.2378 396 97.0439 395.305 97.8222C394.119 98.0538 392.961 98.2298 391.72 98.2854C393.082 97.0161 394.295 95.6263 395.305 94.1161C398.891 88.909 400.253 82.3956 398.919 76.6975C397.242 69.3502 391.544 64.1061 386.911 60.6688C386.475 61.2803 386.04 61.9103 385.614 62.5496C385.614 62.5218 385.586 62.5218 385.558 62.494C385.151 62.179 384.743 61.8825 384.344 61.5953L383.798 61.2154C384.233 60.5761 384.669 59.946 385.095 59.3067C385.53 58.6674 385.966 58.0652 386.401 57.4537C386.809 56.9071 387.18 56.4438 387.587 55.8879C387.615 55.8601 387.643 55.8045 387.671 55.7397C388.19 55.0448 388.708 54.3777 389.237 53.7106V56.7218C389.357 56.8052 389.468 56.8978 389.589 56.9534C389.561 56.9812 389.561 57.009 389.561 57.009C389.125 57.5834 388.69 58.1671 388.227 58.8064C393.202 62.4847 399.308 68.0716 401.161 76.1694C402.597 82.4883 401.124 89.6595 397.186 95.3947Z" fill="white"/>
<path d="M397.188 95.3944C396.604 96.2375 396.002 97.0436 395.307 97.8219C394.121 98.0535 392.963 98.2296 391.722 98.2851C393.083 97.0158 394.297 95.626 395.307 94.1158C398.893 88.9088 400.255 82.3954 398.921 76.6973C397.244 69.35 391.545 64.1059 386.913 60.6685C386.477 60.3535 386.042 60.0292 385.644 59.742L386.051 59.1953L386.978 57.889C387.385 58.1762 387.821 58.5005 388.219 58.8155C393.195 62.4938 399.3 68.0807 401.153 76.1784C402.599 82.488 401.126 89.6593 397.188 95.3944Z" fill="white"/>
<path d="M393.741 70.6188H380.918V68.3488H391.981C392.629 69.0993 393.222 69.8498 393.741 70.6188Z" fill="white"/>
<path d="M396.946 78.4014H377.193V76.1315H396.427C396.538 76.4928 396.631 76.8542 396.714 77.2248C396.807 77.6047 396.881 78.003 396.946 78.4014Z" fill="white"/>
<path d="M396.944 83.9049C396.833 84.6646 396.685 85.4244 396.481 86.1749H376.922V83.9049H396.944Z" fill="white"/>
<path d="M394.176 91.6877C393.944 92.0768 393.703 92.4567 393.444 92.8273C393.185 93.2072 392.907 93.5871 392.61 93.9577H380.019V91.6877H394.176Z" fill="white"/>
<path d="M424.907 57.6288C421.024 57.0821 417.494 55.8036 414.604 53.8949C413.501 53.1444 412.436 52.3013 411.416 51.4952C409.128 49.67 406.96 47.9652 404.356 47.4463C401.197 46.8348 397.583 48.1968 394.721 51.032C392.895 52.8294 391.302 54.7381 389.625 56.8505C389.597 56.9061 389.597 56.9339 389.569 56.971C389.541 56.9988 389.541 57.0266 389.541 57.0266C389.106 57.601 388.67 58.1847 388.207 58.824C387.772 59.4355 387.336 60.0377 386.901 60.677C386.465 61.2885 386.03 61.9186 385.604 62.5579C385.316 62.9933 384.992 63.4566 384.677 63.9199C383.695 65.393 382.741 66.8754 381.87 68.3486C381.555 68.923 381.23 69.5067 380.915 70.0812C379.878 72.0176 379.035 74.0189 378.451 76.1314C378.247 76.8819 378.099 77.6323 377.988 78.3921V78.4199C377.7 80.1895 377.636 81.9777 377.867 83.9141C377.895 84.3218 377.951 84.7573 378.043 85.1557C378.099 85.4985 378.164 85.8505 378.247 86.1655V86.1934C378.766 88.3058 379.637 90.1033 380.702 91.6876C381.249 92.4937 381.888 93.2534 382.528 93.9483L382.555 93.9761C384.316 95.8569 386.317 97.2189 388.114 98.2288L388.031 98.4049C386.586 98.4049 385.168 98.2844 383.778 98.0621C379.47 94.7915 376.69 90.4461 375.82 85.5633C374.198 76.4186 378.367 69.2381 382.796 62.6413C383.111 62.178 383.463 61.6869 383.778 61.2237C384.214 60.5844 384.649 59.9543 385.075 59.315C385.511 58.6757 385.946 58.0735 386.382 57.462C386.79 56.9154 387.16 56.4521 387.568 55.8962C387.596 55.8684 387.623 55.8128 387.651 55.748C388.17 55.0531 388.689 54.386 389.217 53.7189C389.884 52.9128 390.551 52.1253 391.274 51.347C391.848 50.6799 392.46 50.0406 393.099 49.4105C396.11 46.455 399.816 44.8984 403.282 45.0374C403.634 45.0652 403.976 45.093 404.291 45.1208H404.319C404.467 45.1486 404.606 45.1764 404.783 45.2042C405.45 45.3524 406.117 45.5192 406.747 45.7786C407.59 46.1214 408.424 46.5569 409.211 47.0479C410.481 47.8262 411.676 48.7805 412.825 49.6792C413.807 50.4853 414.826 51.2729 415.836 51.9677C418.328 53.5892 421.275 54.6917 424.517 55.2662C424.703 56.0352 424.823 56.8412 424.907 57.6288Z" fill="white"/>
<path d="M420.573 44.3251C419.878 44.5846 419.183 44.8717 418.488 45.1034C415.477 46.1133 412.355 46.7804 409.232 47.0676C408.018 47.1881 406.805 47.2159 405.582 47.2159C404.776 47.2159 403.96 47.2159 403.182 47.1603L403.303 45.0478L403.33 44.8717C403.738 44.8995 404.109 44.9274 404.516 44.9274C404.924 44.9274 405.295 44.9552 405.702 44.9552C406.249 44.9552 406.805 44.9274 407.351 44.8996C410.881 44.7513 414.411 44.0935 417.738 42.9631L419.387 42.3516C419.822 42.9909 420.193 43.658 420.573 44.3251Z" fill="white"/>
<path d="M405.869 46.8172L404.257 45.2144C406.045 43.4169 406.87 40.6559 406.342 38.1728L408.566 37.7003C409.26 40.9616 408.223 44.4546 405.869 46.8172Z" fill="white"/>
<path d="M385.235 56.5634L383.409 57.6937L383.326 57.7493C383.122 57.462 382.946 57.1378 382.742 56.8506C382.622 56.6467 382.483 56.4707 382.399 56.2761C382.372 56.2483 382.344 56.2205 382.344 56.1557C380.611 53.3483 378.925 50.6892 376.266 49.0956C371.402 46.1771 366.25 46.8071 360.895 50.9764C359.709 51.9029 358.523 52.9407 357.393 53.9598C355.975 55.2292 354.502 56.5356 352.908 57.7215C352.853 57.7771 352.76 57.8049 352.704 57.8697C352.825 56.7394 352.992 55.609 353.251 54.5157C354.15 53.793 355.021 53.0148 355.882 52.255C357.041 51.2451 358.254 50.1703 359.496 49.1882C360.571 48.3451 361.664 47.6224 362.739 47.048C363.776 46.4735 364.795 46.0381 365.805 45.7138C366.649 45.4544 367.482 45.2505 368.326 45.1394C368.668 45.1116 369.048 45.0559 369.391 45.0559C372.143 44.9077 374.83 45.6026 377.405 47.1406C378.74 47.9467 379.833 48.9659 380.824 50.0592C382.158 51.5972 383.224 53.302 384.271 55.0067C384.299 55.0623 384.327 55.0902 384.354 55.155C384.438 55.3033 384.53 55.47 384.642 55.6183C384.855 55.924 385.058 56.2483 385.235 56.5634Z" fill="white"/>
<path d="M385.235 56.5634L383.409 57.6937L383.326 57.7493C383.122 57.462 382.946 57.1378 382.742 56.8506C382.622 56.6467 382.483 56.4707 382.399 56.2761C382.372 56.2483 382.344 56.2205 382.344 56.1557C380.611 53.3483 378.925 50.6892 376.266 49.0956C371.402 46.1771 366.25 46.8071 360.895 50.9764C359.709 51.9029 358.523 52.9407 357.393 53.9598C355.975 55.2292 354.502 56.5356 352.908 57.7215C352.853 57.7771 352.76 57.8049 352.704 57.8697C352.825 56.7394 352.992 55.609 353.251 54.5157C354.15 53.793 355.021 53.0148 355.882 52.255C357.041 51.2451 358.254 50.1703 359.496 49.1882C360.571 48.3451 361.664 47.6224 362.739 47.048C363.776 46.4735 364.795 46.0381 365.805 45.7138C366.649 45.4544 367.482 45.2505 368.326 45.1394C368.668 45.1116 369.048 45.0559 369.391 45.0559C372.143 44.9077 374.83 45.6026 377.405 47.1406C378.74 47.9467 379.833 48.9659 380.824 50.0592C382.158 51.5972 383.224 53.302 384.271 55.0067C384.299 55.0623 384.327 55.0902 384.354 55.155C384.438 55.3033 384.53 55.47 384.642 55.6183C384.855 55.924 385.058 56.2483 385.235 56.5634Z" fill="white"/>
<path d="M369.401 44.816V47.1045H367.437C365.871 47.1045 364.315 47.1045 362.749 47.0489C360.488 46.9655 358.237 46.7617 356.004 46.3818C356.356 45.6591 356.699 44.9643 357.107 44.2694C359.766 44.677 362.462 44.7882 365.177 44.816H369.401Z" fill="white"/>
<path d="M366.798 46.8162C365.547 45.6209 364.611 44.12 364.092 42.4801C363.574 40.8309 363.472 39.0705 363.814 37.3749L366.047 37.8196C365.788 39.1353 365.862 40.5159 366.26 41.7944C366.668 43.073 367.391 44.2497 368.364 45.1762L366.798 46.8162Z" fill="white"/>
<path d="M384.362 40.0159C383.75 40.6274 383.176 41.2296 382.657 41.8689C382.481 41.4335 382.194 40.7386 382.083 40.4514C381.592 39.321 381.212 38.1629 380.897 36.9769C380.026 33.6507 379.822 30.1485 380.257 26.7018C381.036 26.498 381.823 26.322 382.629 26.2108C381.934 30.4357 382.37 34.8644 383.871 38.8577C383.954 39.0338 384.019 39.2376 384.102 39.4044C384.186 39.6083 384.278 39.8121 384.362 40.0159Z" fill="white"/>
<path d="M384.104 39.4038L383.206 41.0808C382.826 40.877 382.455 40.6453 382.075 40.4415C380.63 39.5706 379.24 38.6441 377.934 37.6064C376.488 36.476 375.126 35.2623 373.885 33.9281C373.885 33.9281 373.885 33.9281 373.857 33.9281C372.819 32.8255 371.8 31.6396 370.901 30.398C371.569 29.9904 372.236 29.6476 372.931 29.3233C374.691 31.6674 376.776 33.7798 379.064 35.6051C379.147 35.6607 379.212 35.7163 379.296 35.8089C379.815 36.2166 380.37 36.5872 380.889 36.9671C381.871 37.6619 382.854 38.2734 383.873 38.8479C383.965 39.0239 384.021 39.2278 384.104 39.4038Z" fill="white"/>
<path d="M379.304 35.8196L378.498 37.8487C378.322 37.7653 378.118 37.7005 377.951 37.6171C373.782 36.0513 369.325 35.0691 364.813 34.7819C365.619 34.0592 366.462 33.3643 367.361 32.725C369.557 32.9567 371.762 33.3644 373.875 33.9388C373.902 33.9388 373.902 33.9388 373.902 33.9388C375.663 34.4021 377.377 34.9487 379.082 35.6158C379.156 35.6714 379.211 35.727 379.304 35.8196Z" fill="white"/>
<path d="M379.304 35.8196L378.498 37.8487C378.322 37.7653 378.118 37.7005 377.951 37.6171C373.782 36.0513 369.325 35.0691 364.813 34.7819C365.619 34.0592 366.462 33.3643 367.361 32.725C369.557 32.9567 371.762 33.3644 373.875 33.9388C373.902 33.9388 373.902 33.9388 373.902 33.9388C375.663 34.4021 377.377 34.9487 379.082 35.6158C379.156 35.6714 379.211 35.727 379.304 35.8196Z" fill="white"/>
<path d="M412.982 34.8928C411.389 35.0411 409.832 35.1245 408.266 35.18C404.153 35.3561 400.252 35.5229 396.574 36.857C393.387 38.043 390.551 39.6366 388.328 41.4896C388.179 41.6379 388.013 41.7769 387.864 41.8973C385.835 43.6577 384.362 45.6311 383.64 47.6602C382.713 50.1155 382.945 52.6078 384.279 55.0075C384.307 55.0631 384.334 55.0909 384.362 55.1558C384.446 55.304 384.538 55.4708 384.649 55.619C385.196 56.3695 385.891 57.0366 386.382 57.4721C386.697 57.7315 386.929 57.8797 386.957 57.9075L386.03 59.2139L385.622 59.7605C385.595 59.7327 385.391 59.5845 385.076 59.3251C384.64 58.973 384.01 58.3986 383.399 57.7037C383.167 57.4443 382.935 57.157 382.732 56.8605C382.611 56.6567 382.472 56.4807 382.389 56.2861C382.361 56.2583 382.333 56.2305 382.333 56.1656C381.203 54.2014 380.712 52.1446 380.832 50.0599C380.888 48.9852 381.092 47.9197 381.499 46.8727C382.37 44.5008 384.075 42.2123 386.391 40.1554C388.272 38.534 390.505 37.0609 393.044 35.9027L393.072 35.8749C393.942 35.4673 394.869 35.0689 395.795 34.7446C395.823 34.7168 395.851 34.7168 395.879 34.7168C397.296 34.1979 398.742 33.8459 400.224 33.5864C402.856 33.151 405.552 33.0398 408.183 32.9193C408.934 32.8915 409.684 32.8637 410.444 32.7989C411.333 33.4752 412.176 34.1701 412.982 34.8928Z" fill="white"/>
<path d="M412.982 34.8928C411.389 35.0411 409.832 35.1245 408.266 35.18C404.153 35.3561 400.252 35.5229 396.574 36.857C393.387 38.043 390.551 39.6366 388.328 41.4896C388.179 41.6379 388.013 41.7769 387.864 41.8973C385.835 43.6577 384.362 45.6311 383.64 47.6602C382.713 50.1155 382.945 52.6078 384.279 55.0075C384.307 55.0631 384.334 55.0909 384.362 55.1558C384.446 55.304 384.538 55.4708 384.649 55.619C385.196 56.3695 385.891 57.0366 386.382 57.4721C386.697 57.7315 386.929 57.8797 386.957 57.9075L386.03 59.2139L385.622 59.7605C385.595 59.7327 385.391 59.5845 385.076 59.3251C384.64 58.973 384.01 58.3986 383.399 57.7037C383.167 57.4443 382.935 57.157 382.732 56.8605C382.611 56.6567 382.472 56.4807 382.389 56.2861C382.361 56.2583 382.333 56.2305 382.333 56.1656C381.203 54.2014 380.712 52.1446 380.832 50.0599C380.888 48.9852 381.092 47.9197 381.499 46.8727C382.37 44.5008 384.075 42.2123 386.391 40.1554C388.272 38.534 390.505 37.0609 393.044 35.9027L393.072 35.8749C393.942 35.4673 394.869 35.0689 395.795 34.7446C395.823 34.7168 395.851 34.7168 395.879 34.7168C397.296 34.1979 398.742 33.8459 400.224 33.5864C402.856 33.151 405.552 33.0398 408.183 32.9193C408.934 32.8915 409.684 32.8637 410.444 32.7989C411.333 33.4752 412.176 34.1701 412.982 34.8928Z" fill="white"/>
<path d="M394.584 30.4358C394.528 32.4927 393.916 34.2808 393.083 35.8744L393.055 35.9022C391.841 38.1629 390.044 39.9789 388.339 41.4891C388.191 41.6374 388.024 41.7764 387.876 41.8968L386.402 40.1642C390.424 36.7176 392.221 33.799 392.332 30.3524C392.36 28.9626 392.073 27.3968 391.554 25.7754C392.397 25.831 393.175 25.9236 393.981 26.0348C394.408 27.5358 394.639 29.046 394.584 30.4358Z" fill="white"/>
<path d="M401.53 27.9432C402.252 28.2026 402.975 28.5176 403.67 28.8419C402.688 30.5745 401.53 32.1681 400.223 33.5857C399.297 34.6234 398.259 35.5499 397.184 36.393L395.878 34.716L395.795 34.5956C398.055 32.863 399.992 30.5745 401.53 27.9432Z" fill="white"/>
<path d="M401.53 27.9432C402.252 28.2026 402.975 28.5176 403.67 28.8419C402.688 30.5745 401.53 32.1681 400.223 33.5857C399.297 34.6234 398.259 35.5499 397.184 36.393L395.878 34.716L395.795 34.5956C398.055 32.863 399.992 30.5745 401.53 27.9432Z" fill="white"/>
<path d="M389.543 57.0183L387.57 55.8879C387.968 55.2023 388.987 53.0806 388.997 51.5055C389.015 48.3646 386.43 46.1132 386.402 46.0854L387.876 44.3528C388.015 44.4732 391.294 47.2899 391.276 51.5148C391.257 54.0071 389.617 56.8886 389.543 57.0183Z" fill="white"/>
<path d="M448.526 45.131C448.554 45.2504 448.581 45.3882 448.609 45.5076C448.581 45.3882 448.526 45.2504 448.489 45.131H448.526Z" fill="white"/>
<path d="M449.304 48.2035C449.304 48.2035 449.276 48.2035 449.276 48.2311C449.249 48.0841 449.221 47.9187 449.193 47.7717C449.249 47.9095 449.276 48.0566 449.304 48.2035Z" fill="white"/>
<path d="M401.43 41.8509C402.362 41.8509 403.117 41.0959 403.117 40.1646C403.117 39.2334 402.362 38.4784 401.43 38.4784C400.499 38.4784 399.744 39.2334 399.744 40.1646C399.744 41.0959 400.499 41.8509 401.43 41.8509Z" fill="white"/>
<path d="M387.133 33.8555C388.924 33.8555 390.376 33.0964 390.376 32.16C390.376 31.2236 388.924 30.4645 387.133 30.4645C385.342 30.4645 383.89 31.2236 383.89 32.16C383.89 33.0964 385.342 33.8555 387.133 33.8555Z" fill="white"/>
<path d="M387.135 29.3885C388.066 29.3885 388.821 28.6335 388.821 27.7022C388.821 26.7709 388.066 26.016 387.135 26.016C386.203 26.016 385.448 26.7709 385.448 27.7022C385.448 28.6335 386.203 29.3885 387.135 29.3885Z" fill="white"/>
<path d="M371.541 41.8509C372.472 41.8509 373.227 41.0959 373.227 40.1646C373.227 39.2334 372.472 38.4784 371.541 38.4784C370.61 38.4784 369.855 39.2334 369.855 40.1646C369.855 41.0959 370.61 41.8509 371.541 41.8509Z" fill="white"/>
<path d="M353.547 31.3261L353.519 31.3538C353.398 31.1778 353.287 30.974 353.167 30.8072C353.287 30.9832 353.398 31.1593 353.547 31.3261Z" fill="white"/>
<path d="M426.185 57.8143C426.102 57.8418 425.983 57.8418 425.9 57.8694V57.7867C425.983 57.8142 426.065 57.8143 426.185 57.8143Z" fill="white"/>
<path d="M420.71 18.9648C420.71 18.971 420.698 18.9771 420.692 18.9771V18.9648C420.696 18.9648 420.704 18.9586 420.71 18.9648Z" fill="white"/>
<path d="M449.275 48.2252C449.127 48.3086 448.988 48.429 448.784 48.5402C447.246 49.4389 445.254 48.9201 445.133 48.6885C445.013 48.4847 445.541 46.4926 447.098 45.5939C447.533 45.3345 447.996 45.1862 448.487 45.1306C448.284 44.3802 448.024 43.6853 447.793 42.9626C443.447 44.9638 438.676 45.9737 433.876 45.9737C429.8 45.9737 425.714 45.2511 421.924 43.7409C421.461 43.9447 421.026 44.1207 420.562 44.3153C421.109 45.2974 421.6 46.2795 422.063 47.3265C422.582 47.0671 423.249 46.8355 423.944 46.8355C425.741 46.8355 427.187 48.3086 427.187 48.5125C427.187 48.7719 425.741 50.2172 423.944 50.2172C423.685 50.2172 423.453 50.1895 423.194 50.1339C423.777 51.7831 424.231 53.5156 424.528 55.2853C425.047 55.3687 425.565 55.4613 426.094 55.5169C430.606 54.646 434.831 52.1629 437.786 48.5958L439.519 50.069C437.638 52.3575 435.238 54.2383 432.57 55.6003C432.598 55.6003 432.598 55.6003 432.626 55.6003C433.061 55.5725 433.496 55.5169 433.923 55.4521C439.389 54.785 444.689 53.0246 449.868 51.1437C449.738 50.1616 449.534 49.1796 449.275 48.2252ZM442.474 51.8942C441.548 51.8942 440.797 51.1437 440.797 50.2172C440.797 49.2907 441.548 48.5402 442.474 48.5402C443.401 48.5402 444.151 49.2907 444.151 50.2172C444.161 51.1437 443.401 51.8942 442.474 51.8942ZM428.845 14.7038C427.863 16.177 426.649 17.5389 425.287 18.6693C427.659 19.0121 429.92 20.0591 431.653 21.7639L430.087 23.3853C427.854 21.2728 424.5 20.3463 421.581 21.0968C421.405 21.1802 421.229 21.3006 421.035 21.3562C419.182 22.1993 416.782 22.4865 414.438 22.4865C412.01 22.4865 409.629 22.1715 408.045 21.8472C408.073 21.699 408.101 21.56 408.128 21.4118C408.184 21.2079 408.249 21.0041 408.277 20.8003C408.36 20.4204 408.453 20.022 408.508 19.6143C412.159 20.337 417.31 20.5409 420.118 19.2715C420.321 19.1881 420.525 19.0955 420.701 19.0121C420.729 19.0121 420.785 18.9843 420.785 18.9565C420.812 18.9287 420.868 18.9287 420.905 18.9287C420.905 18.9287 420.905 18.9009 420.933 18.9009C423.425 17.5945 425.565 15.6303 427.066 13.2584C424.778 11.4332 422.378 9.784 419.83 8.33863C416.069 8.88528 412.307 10.6549 408.916 14.1294C408.888 13.2584 408.833 12.3597 408.74 11.4981C411.001 9.27442 413.808 7.61593 416.81 6.72647C415.8 6.17982 414.781 5.68877 413.743 5.25331C413.224 5.79995 412.094 6.52263 410.825 6.52263C409.027 6.52263 407.582 5.07727 407.582 4.81784C407.582 4.6696 408.249 3.94691 409.231 3.51145C407.702 2.93701 406.136 2.43669 404.543 2.03829C407.063 7.33797 407.952 13.3789 407.063 19.1418C406.516 22.6163 405.33 25.9147 403.681 28.8332C406.081 29.908 408.369 31.2329 410.454 32.7987C412.335 32.7153 414.216 32.5393 416.013 32.2243C423.481 30.9549 430.337 26.6096 434.886 20.5316C433.015 18.4377 430.986 16.5012 428.845 14.7038ZM421.146 11.637C422.073 11.637 422.823 12.3875 422.823 13.314C422.823 14.2683 422.073 15.0188 421.146 15.0188C420.219 15.0188 419.469 14.2683 419.469 13.314C419.469 12.3968 420.219 11.637 421.146 11.637ZM413.335 15.1115C414.466 13.7495 416.513 13.5457 416.689 13.6939C416.893 13.8421 417.097 15.8897 415.967 17.2795C414.809 18.6693 412.779 18.8731 412.585 18.7249C412.409 18.5581 412.177 16.5012 413.335 15.1115ZM411.946 28.6572C410.815 30.0469 408.795 30.2786 408.592 30.1025C408.388 29.9543 408.184 27.9067 409.314 26.5169C410.472 25.1271 412.529 24.9233 412.696 25.0715C412.9 25.2383 413.104 27.2674 411.946 28.6572ZM417.644 27.8789C416.717 27.8789 415.939 27.1284 415.939 26.2019C415.939 25.2754 416.717 24.5249 417.644 24.5249C418.57 24.5249 419.321 25.2754 419.321 26.2019C419.321 27.1191 418.57 27.8789 417.644 27.8789ZM424.963 26.2297C423.166 26.2297 421.72 24.7843 421.72 24.5249C421.72 24.2655 423.166 22.8201 424.963 22.8201C426.761 22.8201 428.206 24.2933 428.206 24.5249C428.206 24.7751 426.761 26.2297 424.963 26.2297ZM401.615 1.33416H401.587C399.187 0.815307 396.751 0.463227 394.24 0.259393C395.083 1.44534 395.769 2.71466 396.38 4.02105C395.685 4.30827 394.99 4.59549 394.323 4.94757C393.48 3.21498 392.47 1.52872 391.284 0.0555583H391.257C390.45 0.0277628 389.663 -3.05176e-05 388.829 -3.05176e-05C384.141 -3.05176e-05 379.601 0.518823 375.2 1.53799C379.221 4.26195 382.695 7.67154 385.558 11.5536C385.04 12.1281 384.521 12.7396 384.057 13.3789C380.935 8.95013 376.849 5.16066 372.226 2.29772H372.198C370.058 2.87216 368.001 3.56704 365.972 4.41017C365.305 10.9514 366.463 17.6687 369.381 23.5984C370.363 25.6275 371.577 27.5361 372.939 29.3243C373.458 29.0648 373.977 28.8054 374.533 28.5738C373.866 28.3977 373.032 27.9993 372.448 27.2674C371.29 25.8776 371.494 23.8485 371.698 23.6818C371.874 23.5335 373.931 23.7374 375.079 25.1271C375.83 26.0536 375.978 27.2396 375.95 27.9901C377.368 27.4712 378.786 27.0357 380.259 26.6837C380.639 23.6725 381.5 20.7262 382.89 18.03C386.503 10.9699 393.545 5.69805 401.328 4.14151C401.643 4.83639 401.939 5.53128 402.171 6.25396V6.30955C394.907 7.61594 388.282 12.4987 384.919 19.0677C383.789 21.3006 383.011 23.7003 382.631 26.1833C384.66 25.8035 386.707 25.6367 388.82 25.6367C389.746 25.6367 390.645 25.6645 391.544 25.7479C390.673 22.9683 389.116 20.0776 387.467 17.7057C387.902 17.0386 388.394 16.3993 388.912 15.7971C390.849 18.4933 392.989 22.3105 393.98 26.0166C395.083 26.1648 396.121 26.3687 397.195 26.6281C397.316 26.1092 397.548 25.5904 397.918 25.1271C399.049 23.7374 401.096 23.5335 401.3 23.6818C401.476 23.8578 401.68 25.8776 400.549 27.2674C400.466 27.3508 400.373 27.4712 400.29 27.5268C400.698 27.6473 401.133 27.7862 401.532 27.9345C403.153 25.1549 404.283 22.0326 404.802 18.762C405.757 12.86 404.561 6.57825 401.615 1.33416ZM371.54 6.68943C372.467 6.68943 373.217 7.43991 373.217 8.36642C373.217 9.29294 372.467 10.0434 371.54 10.0434C370.614 10.0434 369.863 9.29294 369.863 8.36642C369.863 7.43991 370.623 6.68943 371.54 6.68943ZM371.54 20.0869C371.281 20.0869 369.835 18.6415 369.835 16.8441C369.835 15.0466 371.309 13.6012 371.54 13.6012C371.8 13.6012 373.245 15.0466 373.245 16.8441C373.254 18.6415 371.809 20.0869 371.54 20.0869ZM376.664 21.7731C375.737 21.7731 374.987 21.0227 374.987 20.0961C374.987 19.1696 375.737 18.4191 376.664 18.4191C377.59 18.4191 378.341 19.1696 378.341 20.0961C378.341 21.0227 377.59 21.7731 376.664 21.7731ZM378.98 15.4358C378.776 15.6118 376.719 15.3802 375.598 13.9904C374.468 12.6006 374.672 10.5715 374.876 10.4047C375.052 10.2565 377.099 10.4603 378.23 11.8501C379.36 13.2306 379.156 15.2875 378.98 15.4358ZM386.42 9.49678C385.494 9.49678 384.743 8.7463 384.743 7.81978C384.743 6.89326 385.494 6.14279 386.42 6.14279C387.347 6.14279 388.097 6.89326 388.097 7.81978C388.097 8.7463 387.347 9.49678 386.42 9.49678ZM386.42 5.06802C384.623 5.06802 383.177 3.62266 383.177 3.36323C383.177 3.1316 384.623 1.68621 386.42 1.68621C388.218 1.68621 389.691 3.1316 389.691 3.36323C389.691 3.62266 388.218 5.06802 386.42 5.06802ZM396.232 21.7731C395.305 21.7731 394.555 21.0227 394.555 20.0961C394.555 19.1696 395.305 18.4191 396.232 18.4191C397.158 18.4191 397.909 19.1696 397.909 20.0961C397.909 21.0227 397.158 21.7731 396.232 21.7731ZM397.362 13.9811C396.204 15.3709 394.184 15.6025 393.98 15.4265C393.804 15.2782 393.573 13.2306 394.731 11.8409C395.861 10.4511 397.918 10.2751 398.085 10.3955C398.289 10.5715 398.483 12.5913 397.362 13.9811ZM401.439 20.3556C401.18 20.3556 399.734 18.9102 399.734 17.1128C399.734 15.3153 401.207 13.8699 401.439 13.8699C401.698 13.8699 403.144 15.3153 403.144 17.1128C403.144 18.9009 401.698 20.3556 401.439 20.3556ZM367.352 32.706C368.483 31.8629 369.669 31.0846 370.91 30.3897C369.548 28.5645 368.362 26.6281 367.352 24.599C364.425 18.6415 363.127 11.952 363.591 5.38304C362.349 5.90189 361.163 6.51338 359.977 7.14341C360.7 7.31945 361.219 7.98654 361.219 8.76482C361.219 9.69134 360.468 10.4418 359.542 10.4418C358.587 10.4418 357.837 9.69134 357.837 8.76482C357.837 8.58878 357.865 8.42201 357.92 8.27377C355.919 9.43191 354.038 10.6734 352.194 12.0354H352.167C350.749 14.6945 349.999 17.7057 350.026 20.7169V21.0968C350.026 21.1802 350.054 21.3006 350.054 21.384C350.202 24.7102 351.296 28.0086 353.177 30.7881C353.297 30.9642 353.408 31.168 353.519 31.3348L353.343 31.4552C352.621 31.5664 351.87 31.7147 351.148 31.8629C348.979 28.5923 347.794 24.6824 347.766 20.754C347.738 18.7897 348.025 16.7885 348.572 14.9076C346.571 16.5846 344.699 18.4099 342.957 20.3185C344.087 20.4019 345.218 20.6984 346.256 21.1246C346.283 21.875 346.339 22.6255 346.459 23.3853L346.283 23.6725C344.69 22.7738 342.809 22.3661 340.993 22.5699C337.833 26.3872 335.119 30.6121 332.951 35.1057C335.267 35.1613 337.787 35.8006 340.446 37.0699C342.04 37.8204 343.541 38.7191 345.023 39.5623C346.496 40.4332 348.007 41.2949 349.535 42.0176C351.963 43.1479 354.511 43.8428 357.114 44.2504C357.633 43.3239 358.217 42.3974 358.819 41.5265C358.699 41.4431 358.587 41.3227 358.504 41.2115C357.374 39.8217 357.578 37.7926 357.781 37.6259C357.957 37.4776 359.718 37.6537 360.876 38.784C362.062 37.3387 363.396 35.9766 364.814 34.7629C358.736 34.2996 352.547 35.0501 346.811 36.9587L346.089 34.7907C352.852 32.5393 360.227 31.8444 367.352 32.706ZM353.603 36.5604C354.529 36.5604 355.28 37.3108 355.28 38.2373C355.28 39.1639 354.529 39.9143 353.603 39.9143C352.676 39.9143 351.926 39.1639 351.926 38.2373C351.926 37.3108 352.676 36.5604 353.603 36.5604ZM337.37 34.2996C336.62 34.068 335.86 33.9198 335.137 33.8086C335.888 30.3619 337.481 27.1562 339.798 24.4322L341.53 25.9054C339.455 28.3421 338.028 31.2329 337.37 34.2996ZM346.163 32.4466C345.959 32.5949 343.902 32.391 342.772 31.0012C341.641 29.6115 341.845 27.5824 342.049 27.4156C342.225 27.2674 344.282 27.4712 345.403 28.861C346.543 30.2508 346.339 32.2706 346.163 32.4466ZM365.935 27.814C365.935 28.0179 365.008 29 363.702 29.3798C363.387 29.4632 363.035 29.5281 362.692 29.5281C361.126 29.5281 359.829 28.4255 359.505 27.9623C359.477 27.9067 359.449 27.8511 359.449 27.814C359.449 27.5546 360.894 26.1092 362.692 26.1092C364.48 26.1092 365.935 27.5824 365.935 27.814ZM353.251 12.9712C356.058 11.9891 359.18 11.9891 362.312 12.999C362.395 13.8421 362.544 14.7038 362.72 15.5469C359.273 14.1572 355.141 14.3332 352.13 15.9824C352.389 14.9354 352.787 13.9255 353.251 12.9712ZM353.714 23.3575C353.455 23.3575 352.009 21.8843 352.009 20.1147C352.009 18.3172 353.482 16.8441 353.714 16.8441C353.973 16.8441 355.391 18.3172 355.391 20.1147C355.4 21.8843 353.983 23.3575 353.714 23.3575ZM358.838 21.6805C359.764 21.6805 360.515 22.431 360.515 23.3575C360.515 24.284 359.764 25.0345 358.838 25.0345C357.911 25.0345 357.161 24.284 357.161 23.3575C357.161 22.431 357.911 21.6805 358.838 21.6805ZM348.535 44.0837C346.913 43.3332 345.348 42.4345 343.847 41.5357C342.429 40.7297 340.956 39.8588 339.446 39.1361C336.638 37.8297 334.118 37.2552 331.867 37.459C331.515 38.2651 331.172 39.0805 330.885 39.8866C331.348 40.2664 332.358 41.5357 332.358 43.0367C332.358 44.7971 330.912 46.2795 330.681 46.2795C330.505 46.2795 329.754 45.5568 329.291 44.5469C329.032 45.4179 328.8 46.2517 328.596 47.1504C330.625 47.1226 332.617 47.5303 334.442 48.3086C335.054 49.6984 335.832 51.0048 336.786 52.1537C336.87 52.2371 336.963 52.3297 337.018 52.4131C334.266 50.5322 331.607 49.1981 328.077 49.4297C327.642 51.4866 327.327 53.5434 327.095 55.6559C327.355 55.5725 327.642 55.5447 327.938 55.5447C329.736 55.5447 331.209 57.0179 331.209 57.2495C331.209 57.5089 329.736 58.9543 327.938 58.9543C327.558 58.9543 327.216 58.8987 326.864 58.7782C326.836 59.3249 326.808 59.8808 326.836 60.4275C335.174 62.6233 344.606 60.9463 351.555 55.8505C352.13 55.415 352.713 54.9795 353.26 54.4884C353.844 51.6255 354.761 48.9016 356.012 46.3537C353.482 45.9367 350.971 45.214 348.535 44.0837ZM350.619 49.2351C350.619 49.4945 349.174 50.9399 347.377 50.9399C345.579 50.9399 344.134 49.4945 344.134 49.2351C344.134 48.9757 345.579 47.5303 347.377 47.5303C349.174 47.5303 350.619 49.0035 350.619 49.2351ZM342.809 42.5179C343.735 42.5179 344.486 43.2683 344.486 44.1949C344.486 45.1214 343.735 45.8718 342.809 45.8718C341.882 45.8718 341.132 45.1214 341.132 44.1949C341.132 43.2683 341.882 42.5179 342.809 42.5179ZM331.607 55.1093C330.681 55.1093 329.93 54.3588 329.93 53.4323C329.93 52.4779 330.681 51.7274 331.607 51.7274C332.534 51.7274 333.284 52.4779 333.284 53.4323C333.284 54.3588 332.534 55.1093 331.607 55.1093ZM339.362 59.3064C339.158 59.4824 337.129 59.2786 335.971 57.8888C334.841 56.499 335.045 54.4422 335.248 54.3032C335.425 54.1549 337.481 54.331 338.602 55.7207C339.77 57.1012 339.538 59.1581 339.362 59.3064ZM350.647 54.646C349.693 55.3409 348.683 55.9802 347.608 56.5546C343.874 56.0358 340.372 54.0994 337.972 51.1716C335.221 47.8732 334.007 43.3239 334.702 39.099C335.424 39.2472 336.147 39.4511 336.935 39.7383C336.416 43.2405 337.454 46.9744 339.714 49.754C342.086 52.6169 345.903 54.331 350.944 54.4144C350.851 54.4978 350.768 54.5626 350.647 54.646ZM450.266 53.4323C445.087 55.3131 439.787 57.0457 434.238 57.7128C431.458 58.0556 428.743 58.0926 426.195 57.7961C426.075 57.7961 425.992 57.7962 425.908 57.7684C425.556 57.7406 425.241 57.6849 424.926 57.6201C425.13 59.0655 425.213 60.5386 425.213 62.0489C425.213 79.9029 412.307 94.7827 395.315 97.8217C394.472 98.8038 393.554 99.7582 392.535 100.629C395.166 103.325 398.641 104.622 401.272 105.262C405.154 106.188 409.231 106.244 413.224 106.299C420.368 106.383 426.483 106.448 432.033 106.503C443.633 95.246 450.869 79.4767 450.869 62.0489C450.869 59.1303 450.665 56.2396 450.266 53.4323ZM413.187 108.56C409.073 108.504 404.848 108.44 400.716 107.458C397.761 106.763 393.767 105.225 390.765 102.074C388.014 104.187 384.836 105.864 381.417 107.078C376.469 108.81 371.698 109.107 366.806 109.107C365.564 109.107 364.286 109.079 363.044 109.079C361.914 109.051 360.783 109.023 359.634 109.023C355.697 109.023 351.935 108.996 348.349 108.996C359.227 118.4 373.384 124.07 388.838 124.07C404.441 124.07 418.7 118.279 429.614 108.764C424.676 108.708 419.321 108.643 413.187 108.56ZM388.82 98.4332C388.56 98.4332 388.301 98.4332 388.041 98.4054L387.986 98.4888C387.411 98.9243 386.8 99.3319 386.188 99.7303C385.345 99.2115 384.539 98.6926 383.789 98.0533C366.102 95.6259 352.445 80.4032 352.445 62.0489C352.445 60.6313 352.528 59.2415 352.704 57.8517C347.349 61.669 340.78 63.6703 334.183 63.6703C331.691 63.6703 329.208 63.383 326.799 62.7715C326.975 80.0233 334.239 95.561 345.811 106.707C350.184 106.735 354.752 106.735 359.644 106.763C360.774 106.763 361.932 106.763 363.063 106.79C369.113 106.874 374.811 106.966 380.657 104.937C384.882 103.436 388.671 101.176 391.683 98.285C390.765 98.4054 389.774 98.4332 388.82 98.4332ZM440.306 27.499C440.658 28.0179 440.973 28.5738 441.316 29.0926C441.233 30.7696 439.899 32.1038 439.639 32.1038C439.38 32.1038 437.934 30.6584 437.934 28.861C437.934 27.5917 438.713 26.4613 439.204 25.9425C438.305 24.7009 437.351 23.4872 436.369 22.292C431.504 28.6016 424.241 33.1137 416.374 34.4757C415.244 34.6795 414.114 34.7907 412.993 34.8834C415.448 37.0514 417.625 39.5715 419.386 42.3511C420.257 41.999 421.09 41.6284 421.934 41.2485C422.832 40.8131 423.731 40.3498 424.63 39.9143C426.89 38.784 429.234 37.6258 431.718 36.792C431.977 36.7086 432.209 36.6159 432.468 36.5325L432.412 36.4769C433.886 35.0038 434.349 30.1674 433.978 27.2118C434.673 26.5447 435.368 25.8498 436.007 25.0993C436.619 27.8233 436.498 32.5671 435.368 35.6894H435.396C438.287 34.9667 441.27 34.4757 444.281 34.2996C443.142 31.9556 441.807 29.6671 440.306 27.499ZM419.321 39.9143C418.394 39.9143 417.644 39.1639 417.644 38.2373C417.644 37.3108 418.394 36.5604 419.321 36.5604C420.247 36.5604 420.998 37.3108 420.998 38.2373C421.007 39.1639 420.247 39.9143 419.321 39.9143ZM426.788 36.1527C425.223 37.0514 423.258 36.5325 423.11 36.3009C422.99 36.0971 423.546 34.1051 425.074 33.2064C426.64 32.3354 428.632 32.8913 428.753 33.0581C428.873 33.2897 428.354 35.254 426.788 36.1527ZM445.337 36.5325C440.909 36.7364 436.508 37.5425 432.431 38.9322C430.115 39.7383 427.826 40.8687 425.63 41.9434C425.371 42.0917 425.111 42.2028 424.815 42.3511C432.107 44.6118 440.214 44.0281 447.07 40.7575C446.533 39.3399 445.977 37.9223 445.337 36.5325ZM439.639 41.8508C437.842 41.8508 436.396 40.4054 436.396 40.146C436.396 39.9143 437.842 38.469 439.639 38.469C441.437 38.469 442.882 39.9143 442.882 40.146C442.882 40.4054 441.437 41.8508 439.639 41.8508Z" fill="white"/>
<path d="M126.801 62.0392C126.801 58.1108 126.55 54.3584 126.032 50.7449H28.3674C30.5725 41.6373 35.0939 34.3919 41.9131 28.9995C48.7323 23.6165 57.0246 20.911 66.7716 20.911C76.3795 20.911 84.3383 23.5887 90.6479 28.9069C93.6962 31.5011 96.2348 34.5401 98.2361 38.0609L114.96 23.4497H115.191C115.117 23.3385 115.034 23.2273 114.96 23.1254C113.598 21.3094 112.125 19.5768 110.531 17.8998C99.6722 6.52216 85.2185 0.842621 67.1607 0.842621C48.8249 0.842621 33.7227 6.58702 21.8354 18.1037C9.94823 29.6018 4 44.3056 4 62.2523C4 80.1804 10.0409 94.838 22.1134 106.216C34.2045 117.593 50.0572 123.273 69.6901 123.273C90.3422 123.273 108.205 115.731 123.289 100.647L109.447 86.6105C99.1812 97.284 86.1173 102.602 70.2738 102.602C58.8406 102.602 49.3901 99.6744 41.9131 93.8281C34.4361 87.991 29.785 80.1249 27.969 70.2482H126.412C126.68 68.4044 126.801 65.6804 126.801 62.0392Z" fill="white"/>
<path d="M126.801 3.55739V23.4405H156.478V120.521H179.289V23.4405H220.815V3.55739H126.801Z" fill="white"/>
<path d="M325.511 3.53847H302.7V50.5222H241.689V3.53847H218.878V120.521H241.689V70.4052H302.7V120.521H325.511V94.2816C321.471 84.3122 319.266 73.4257 319.266 62.0388C319.266 50.6519 321.471 39.7746 325.511 29.8145V3.53847Z" fill="white"/>
<path d="M541.901 72.9078C539.918 69.0257 537.602 65.996 534.952 63.8187C532.311 61.6599 528.596 59.6401 523.824 57.7963C519.071 55.9618 515.032 54.6832 511.743 53.9791C508.453 53.2749 504.108 52.3392 498.679 51.181C493.638 50.097 489.812 49.2723 487.162 48.7072C484.503 48.1235 481.575 47.2248 478.342 45.9554C475.099 44.7046 472.755 43.111 471.319 41.1838C469.864 39.2752 469.141 36.9775 469.141 34.3276C469.141 29.8248 471.282 26.2669 475.571 23.6912C479.87 21.1062 485.318 19.8091 491.934 19.8091C498.679 19.8091 505.424 21.1989 512.15 23.9692C518.895 26.758 524.306 30.7142 528.401 35.8749L543.874 22.5887C538.056 15.1858 530.588 9.59888 521.471 5.83722C512.354 2.06629 502.839 0.185455 492.916 0.185455C479.963 0.185455 469.021 3.32636 460.108 9.60815C454.808 13.3513 451.065 18.0209 448.934 23.6542C454.317 34.4666 457.495 46.5577 457.884 59.3436C459.135 60.3443 460.339 61.2337 461.498 62.0305C463.795 63.6241 467.112 65.0324 471.402 66.3017C475.701 67.5525 479.036 68.4605 481.427 69.0257C483.817 69.5723 487.403 70.4155 492.193 71.5273C495.936 72.389 498.605 73.0097 500.217 73.3896C501.847 73.7695 504.154 74.3161 507.193 75.0203C510.232 75.7244 512.419 76.4471 513.735 77.1791C515.05 77.9018 516.533 78.819 518.191 79.9494C519.831 81.0797 520.989 82.3583 521.666 83.8315C522.323 85.2861 522.648 86.8705 522.648 88.5845C522.648 93.2171 520.266 96.8953 515.513 99.6008C510.76 102.325 504.738 103.668 497.474 103.668C490.859 103.668 484.114 102.39 477.248 99.8046C470.383 97.2196 464.499 93.1707 459.598 87.6209L451.991 93.4858C450.583 97.0992 448.925 100.601 447.044 103.955C451.834 109.709 458.171 114.277 466.037 117.659C475.757 121.819 485.893 123.903 496.464 123.903C510.075 123.903 521.545 120.633 530.866 114.092C540.177 107.532 544.838 98.2573 544.838 86.2311C544.875 81.2372 543.893 76.7899 541.901 72.9078Z" fill="white"/>
</g>
<defs>
<filter id="filter0_d_1_519" x="0" y="-3.05176e-05" width="548.839" height="132.07" filterUnits="userSpaceOnUse" color-interpolation-filters="sRGB">
<feFlood flood-opacity="0" result="BackgroundImageFix"/>
<feColorMatrix in="SourceAlpha" type="matrix" values="0 0 0 0 0 0 0 0 0 0 0 0 0 0 0 0 0 0 127 0" result="hardAlpha"/>
<feOffset dy="4"/>
<feGaussianBlur stdDeviation="2"/>
<feComposite in2="hardAlpha" operator="out"/>
<feColorMatrix type="matrix" values="0 0 0 0 0 0 0 0 0 0 0 0 0 0 0 0 0 0 0.25 0"/>
<feBlend mode="normal" in2="BackgroundImageFix" result="effect1_dropShadow_1_519"/>
<feBlend mode="normal" in="SourceGraphic" in2="effect1_dropShadow_1_519" result="shape"/>
</filter>
</defs>
</svg>
